<?xml version="1.0" encoding="utf-8"?>
<svg xmlns="http://www.w3.org/2000/svg" viewBox="0 0 244.872 331.497">
  <defs>
    <clipPath id="ae8e0cc69f">
      <path d="M 96 30.734375 L 269 30.734375 L 269 157 L 96 157 Z M 96 30.734375 " clip-rule="nonzero"/>
    </clipPath>
    <clipPath id="d3e1538df6">
      <path d="M 70.75 122 L 293 122 L 293 190 L 70.75 190 Z M 70.75 122 " clip-rule="nonzero"/>
    </clipPath>
    <clipPath id="3f0170c83f">
      <path d="M 70.75 122 L 293.5 122 L 293.5 190.484375 L 70.75 190.484375 Z M 70.75 122 " clip-rule="nonzero"/>
    </clipPath>
  </defs>
  <g fill="#023047" fill-opacity="1" transform="matrix(1, 0, 0, 1, -57.219669, -9.698378)">
    <g transform="translate(76.201929, 246.654408)">
      <g>
        <path d="M 4.171875 -56.390625 L 19.703125 -56.390625 C 25.878906 -56.390625 30.546875 -55.296875 33.703125 -53.109375 C 36.859375 -50.929688 38.4375 -47.0625 38.4375 -41.5 C 38.4375 -37.738281 37.945312 -34.742188 36.96875 -32.515625 C 36 -30.285156 34.191406 -28.546875 31.546875 -27.296875 L 39.265625 0 L 26.390625 0 L 20.1875 -25.28125 L 16.640625 -25.28125 L 16.640625 0 L 4.171875 0 Z M 20.125 -32.4375 C 22.625 -32.4375 24.375 -33.097656 25.375 -34.421875 C 26.375 -35.742188 26.875 -37.726562 26.875 -40.375 C 26.875 -42.9375 26.410156 -44.851562 25.484375 -46.125 C 24.554688 -47.40625 22.953125 -48.046875 20.671875 -48.046875 L 16.640625 -48.046875 L 16.640625 -32.4375 Z M 20.125 -32.4375 "/>
      </g>
    </g>
  </g>
  <g fill="#023047" fill-opacity="1" transform="matrix(1, 0, 0, 1, -57.219669, -9.698378)">
    <g transform="translate(117.97647, 246.654408)">
      <g>
        <path d="M 4.25 -56.390625 L 16.703125 -56.390625 L 16.703125 0 L 4.25 0 Z M 4.25 -56.390625 "/>
      </g>
    </g>
  </g>
  <g fill="#023047" fill-opacity="1" transform="matrix(1, 0, 0, 1, -57.219669, -9.698378)">
    <g transform="translate(138.933366, 246.654408)">
      <g>
        <path d="M 1.53125 -56.390625 L 12.1875 -56.390625 L 18.234375 -18.109375 L 23.875 -56.390625 L 35.15625 -56.390625 L 24.859375 0 L 11.703125 0 Z M 1.53125 -56.390625 "/>
      </g>
    </g>
  </g>
  <g fill="#023047" fill-opacity="1" transform="matrix(1, 0, 0, 1, -57.219669, -9.698378)">
    <g transform="translate(175.55571, 246.654408)">
      <g>
        <path d="M 4.171875 -56.390625 L 29.515625 -56.390625 L 29.515625 -47.90625 L 16.640625 -47.90625 L 16.640625 -33.90625 L 26.453125 -33.90625 L 26.453125 -25.28125 L 16.640625 -25.28125 L 16.640625 -8.421875 L 29.65625 -8.421875 L 29.65625 0 L 4.171875 0 Z M 4.171875 -56.390625 "/>
      </g>
    </g>
  </g>
  <g fill="#023047" fill-opacity="1" transform="matrix(1, 0, 0, 1, -57.219669, -9.698378)">
    <g transform="translate(206.677738, 246.654408)">
      <g>
        <path d="M 4.171875 -56.390625 L 19.703125 -56.390625 C 25.878906 -56.390625 30.546875 -55.296875 33.703125 -53.109375 C 36.859375 -50.929688 38.4375 -47.0625 38.4375 -41.5 C 38.4375 -37.738281 37.945312 -34.742188 36.96875 -32.515625 C 36 -30.285156 34.191406 -28.546875 31.546875 -27.296875 L 39.265625 0 L 26.390625 0 L 20.1875 -25.28125 L 16.640625 -25.28125 L 16.640625 0 L 4.171875 0 Z M 20.125 -32.4375 C 22.625 -32.4375 24.375 -33.097656 25.375 -34.421875 C 26.375 -35.742188 26.875 -37.726562 26.875 -40.375 C 26.875 -42.9375 26.410156 -44.851562 25.484375 -46.125 C 24.554688 -47.40625 22.953125 -48.046875 20.671875 -48.046875 L 16.640625 -48.046875 L 16.640625 -32.4375 Z M 20.125 -32.4375 "/>
      </g>
    </g>
  </g>
  <g fill="#023047" fill-opacity="1" transform="matrix(1, 0, 0, 1, -57.219669, -9.698378)">
    <g transform="translate(248.452285, 246.654408)">
      <g>
        <path d="M 19.140625 0.828125 C 13.765625 0.828125 9.765625 -0.597656 7.140625 -3.453125 C 4.515625 -6.304688 3.109375 -10.84375 2.921875 -17.0625 L 13.578125 -18.65625 C 13.617188 -15.082031 14.046875 -12.519531 14.859375 -10.96875 C 15.671875 -9.414062 16.890625 -8.640625 18.515625 -8.640625 C 20.609375 -8.640625 21.65625 -10.003906 21.65625 -12.734375 C 21.65625 -14.921875 21.15625 -16.800781 20.15625 -18.375 C 19.15625 -19.957031 17.585938 -21.65625 15.453125 -23.46875 L 10.578125 -27.703125 C 8.171875 -29.753906 6.304688 -31.925781 4.984375 -34.21875 C 3.660156 -36.519531 3 -39.25 3 -42.40625 C 3 -47.132812 4.398438 -50.773438 7.203125 -53.328125 C 10.015625 -55.878906 13.878906 -57.15625 18.796875 -57.15625 C 24.140625 -57.15625 27.769531 -55.597656 29.6875 -52.484375 C 31.613281 -49.378906 32.648438 -45.597656 32.796875 -41.140625 L 22.078125 -39.828125 C 21.984375 -42.753906 21.710938 -44.851562 21.265625 -46.125 C 20.828125 -47.40625 19.863281 -48.046875 18.375 -48.046875 C 17.3125 -48.046875 16.488281 -47.59375 15.90625 -46.6875 C 15.320312 -45.78125 15.03125 -44.769531 15.03125 -43.65625 C 15.03125 -41.75 15.457031 -40.144531 16.3125 -38.84375 C 17.175781 -37.550781 18.5625 -36.066406 20.46875 -34.390625 L 25.140625 -30.28125 C 27.921875 -27.914062 30.078125 -25.410156 31.609375 -22.765625 C 33.140625 -20.117188 33.90625 -16.988281 33.90625 -13.375 C 33.90625 -10.726562 33.289062 -8.320312 32.0625 -6.15625 C 30.832031 -4 29.101562 -2.296875 26.875 -1.046875 C 24.644531 0.203125 22.066406 0.828125 19.140625 0.828125 Z M 19.140625 0.828125 "/>
      </g>
    </g>
  </g>
  <g fill="#023047" fill-opacity="1" transform="matrix(1, 0, 0, 1, -57.219669, -9.698378)">
    <g transform="translate(166.842119, 305.700993)">
      <g>
        <path d="M 0.8125 -10.40625 L 2.90625 -10.40625 C 3.957031 -10.40625 4.726562 -10.1875 5.21875 -9.75 C 5.707031 -9.320312 5.953125 -8.617188 5.953125 -7.640625 C 5.953125 -6.304688 5.523438 -5.5 4.671875 -5.21875 L 6.15625 0 L 4.75 0 L 3.390625 -4.875 L 2.265625 -4.875 L 2.265625 0 L 0.8125 0 Z M 2.8125 -5.921875 C 3.4375 -5.921875 3.882812 -6.046875 4.15625 -6.296875 C 4.425781 -6.546875 4.5625 -6.992188 4.5625 -7.640625 C 4.5625 -8.066406 4.515625 -8.398438 4.421875 -8.640625 C 4.328125 -8.890625 4.160156 -9.070312 3.921875 -9.1875 C 3.679688 -9.300781 3.34375 -9.359375 2.90625 -9.359375 L 2.265625 -9.359375 L 2.265625 -5.921875 Z M 2.8125 -5.921875 "/>
      </g>
    </g>
  </g>
  <g fill="#023047" fill-opacity="1" transform="matrix(1, 0, 0, 1, -57.219669, -9.698378)">
    <g transform="translate(174.057619, 305.700993)">
      <g>
        <path d="M 2.03125 0.109375 C 1.75 0.109375 1.492188 0.0234375 1.265625 -0.140625 C 1.035156 -0.304688 0.859375 -0.519531 0.734375 -0.78125 C 0.609375 -1.050781 0.546875 -1.332031 0.546875 -1.625 C 0.546875 -2.195312 0.664062 -2.664062 0.90625 -3.03125 C 1.15625 -3.394531 1.472656 -3.679688 1.859375 -3.890625 C 2.242188 -4.109375 2.78125 -4.359375 3.46875 -4.640625 L 3.46875 -5.15625 C 3.46875 -5.644531 3.414062 -5.988281 3.3125 -6.1875 C 3.21875 -6.394531 3.019531 -6.5 2.71875 -6.5 C 2.195312 -6.5 1.9375 -6.148438 1.9375 -5.453125 L 1.9375 -5.078125 L 0.578125 -5.125 C 0.597656 -5.945312 0.785156 -6.550781 1.140625 -6.9375 C 1.503906 -7.332031 2.0625 -7.53125 2.8125 -7.53125 C 3.519531 -7.53125 4.035156 -7.332031 4.359375 -6.9375 C 4.679688 -6.550781 4.84375 -5.960938 4.84375 -5.171875 L 4.84375 -1.78125 C 4.84375 -1.226562 4.882812 -0.632812 4.96875 0 L 3.71875 0 C 3.625 -0.488281 3.5625 -0.851562 3.53125 -1.09375 C 3.425781 -0.757812 3.25 -0.472656 3 -0.234375 C 2.75 -0.00390625 2.425781 0.109375 2.03125 0.109375 Z M 2.5625 -1.078125 C 2.75 -1.078125 2.925781 -1.144531 3.09375 -1.28125 C 3.269531 -1.425781 3.394531 -1.566406 3.46875 -1.703125 L 3.46875 -3.796875 C 3.101562 -3.597656 2.816406 -3.421875 2.609375 -3.265625 C 2.410156 -3.117188 2.242188 -2.945312 2.109375 -2.75 C 1.972656 -2.550781 1.90625 -2.316406 1.90625 -2.046875 C 1.90625 -1.734375 1.960938 -1.492188 2.078125 -1.328125 C 2.191406 -1.160156 2.351562 -1.078125 2.5625 -1.078125 Z M 2.5625 -1.078125 "/>
      </g>
    </g>
  </g>
  <g fill="#023047" fill-opacity="1" transform="matrix(1, 0, 0, 1, -57.219669, -9.698378)">
    <g transform="translate(180.079137, 305.700993)">
      <g>
        <path d="M 1.125 -6.40625 L 0.25 -6.40625 L 0.25 -7.421875 L 1.125 -7.421875 L 1.125 -7.8125 C 1.125 -8.320312 1.160156 -8.734375 1.234375 -9.046875 C 1.316406 -9.359375 1.472656 -9.597656 1.703125 -9.765625 C 1.941406 -9.941406 2.285156 -10.03125 2.734375 -10.03125 C 3.035156 -10.03125 3.335938 -10 3.640625 -9.9375 L 3.640625 -8.9375 C 3.460938 -8.976562 3.289062 -9 3.125 -9 C 2.875 -9 2.707031 -8.921875 2.625 -8.765625 C 2.539062 -8.609375 2.5 -8.367188 2.5 -8.046875 L 2.5 -7.421875 L 3.640625 -7.421875 L 3.640625 -6.40625 L 2.5 -6.40625 L 2.5 0 L 1.125 0 Z M 1.125 -6.40625 "/>
      </g>
    </g>
  </g>
  <g fill="#023047" fill-opacity="1" transform="matrix(1, 0, 0, 1, -57.219669, -9.698378)">
    <g transform="translate(184.316084, 305.700993)">
      <g>
        <path d="M 2.671875 0.109375 C 1.597656 0.109375 1.0625 -0.484375 1.0625 -1.671875 L 1.0625 -6.515625 L 0.28125 -6.515625 L 0.28125 -7.421875 L 1.0625 -7.421875 L 1.0625 -9.59375 L 2.4375 -9.59375 L 2.4375 -7.421875 L 3.640625 -7.421875 L 3.640625 -6.515625 L 2.4375 -6.515625 L 2.4375 -1.765625 C 2.4375 -1.460938 2.484375 -1.25 2.578125 -1.125 C 2.671875 -1.007812 2.851562 -0.953125 3.125 -0.953125 C 3.289062 -0.953125 3.457031 -0.960938 3.625 -0.984375 L 3.625 0.03125 C 3.28125 0.0820312 2.960938 0.109375 2.671875 0.109375 Z M 2.671875 0.109375 "/>
      </g>
    </g>
  </g>
  <g fill="#023047" fill-opacity="1" transform="matrix(1, 0, 0, 1, -57.219669, -9.698378)">
    <g transform="translate(188.822645, 305.700993)">
      <g>
        <path d="M 0.78125 -9.96875 L 2.15625 -9.96875 L 2.15625 -8.53125 L 0.78125 -8.53125 Z M 0.78125 -7.421875 L 2.15625 -7.421875 L 2.15625 0 L 0.78125 0 Z M 0.78125 -7.421875 "/>
      </g>
    </g>
  </g>
  <g fill="#023047" fill-opacity="1" transform="matrix(1, 0, 0, 1, -57.219669, -9.698378)">
    <g transform="translate(192.314957, 305.700993)">
      <g>
        <path d="M 0.6875 -7.421875 L 2.0625 -7.421875 L 2.0625 -6.6875 C 2.65625 -7.25 3.257812 -7.53125 3.875 -7.53125 C 4.28125 -7.53125 4.566406 -7.382812 4.734375 -7.09375 C 4.910156 -6.800781 5 -6.441406 5 -6.015625 L 5 0 L 3.625 0 L 3.625 -5.609375 C 3.625 -5.890625 3.578125 -6.097656 3.484375 -6.234375 C 3.398438 -6.378906 3.25 -6.453125 3.03125 -6.453125 C 2.757812 -6.453125 2.4375 -6.296875 2.0625 -5.984375 L 2.0625 0 L 0.6875 0 Z M 0.6875 -7.421875 "/>
      </g>
    </g>
  </g>
  <g fill="#023047" fill-opacity="1" transform="matrix(1, 0, 0, 1, -57.219669, -9.698378)">
    <g transform="translate(198.503377, 305.700993)">
      <g>
        <path d="M 2.625 2.296875 C 1.90625 2.296875 1.328125 2.179688 0.890625 1.953125 C 0.460938 1.734375 0.25 1.382812 0.25 0.90625 C 0.25 0.570312 0.347656 0.285156 0.546875 0.046875 C 0.753906 -0.191406 1.015625 -0.382812 1.328125 -0.53125 C 1.085938 -0.59375 0.90625 -0.695312 0.78125 -0.84375 C 0.664062 -0.988281 0.609375 -1.148438 0.609375 -1.328125 C 0.609375 -1.578125 0.671875 -1.796875 0.796875 -1.984375 C 0.921875 -2.171875 1.128906 -2.398438 1.421875 -2.671875 C 1.128906 -2.890625 0.910156 -3.164062 0.765625 -3.5 C 0.628906 -3.84375 0.5625 -4.300781 0.5625 -4.875 C 0.5625 -5.738281 0.738281 -6.394531 1.09375 -6.84375 C 1.445312 -7.300781 1.96875 -7.53125 2.65625 -7.53125 C 3.050781 -7.53125 3.375 -7.457031 3.625 -7.3125 C 3.875 -7.175781 4.0625 -6.972656 4.1875 -6.703125 C 4.25 -6.796875 4.375 -6.921875 4.5625 -7.078125 C 4.757812 -7.242188 4.96875 -7.375 5.1875 -7.46875 L 5.390625 -7.5625 L 5.734375 -6.671875 C 5.566406 -6.640625 5.332031 -6.566406 5.03125 -6.453125 C 4.726562 -6.347656 4.546875 -6.265625 4.484375 -6.203125 C 4.546875 -6.046875 4.597656 -5.832031 4.640625 -5.5625 C 4.691406 -5.289062 4.71875 -5.050781 4.71875 -4.84375 C 4.71875 -4.03125 4.554688 -3.394531 4.234375 -2.9375 C 3.921875 -2.488281 3.394531 -2.265625 2.65625 -2.265625 C 2.425781 -2.265625 2.191406 -2.296875 1.953125 -2.359375 C 1.785156 -2.117188 1.703125 -1.929688 1.703125 -1.796875 C 1.703125 -1.703125 1.75 -1.625 1.84375 -1.5625 C 1.945312 -1.507812 2.109375 -1.476562 2.328125 -1.46875 L 3.484375 -1.359375 C 4.066406 -1.304688 4.5 -1.128906 4.78125 -0.828125 C 5.0625 -0.535156 5.203125 -0.109375 5.203125 0.453125 C 5.203125 1.679688 4.34375 2.296875 2.625 2.296875 Z M 2.65625 -3.234375 C 3.03125 -3.234375 3.269531 -3.359375 3.375 -3.609375 C 3.488281 -3.867188 3.546875 -4.289062 3.546875 -4.875 C 3.546875 -5.46875 3.488281 -5.898438 3.375 -6.171875 C 3.269531 -6.441406 3.035156 -6.578125 2.671875 -6.578125 C 2.304688 -6.578125 2.0625 -6.441406 1.9375 -6.171875 C 1.820312 -5.898438 1.765625 -5.46875 1.765625 -4.875 C 1.765625 -4.34375 1.820312 -3.9375 1.9375 -3.65625 C 2.0625 -3.375 2.300781 -3.234375 2.65625 -3.234375 Z M 2.71875 1.21875 C 3.207031 1.21875 3.566406 1.160156 3.796875 1.046875 C 4.035156 0.929688 4.15625 0.742188 4.15625 0.484375 C 4.15625 0.242188 4.082031 0.0664062 3.9375 -0.046875 C 3.789062 -0.160156 3.523438 -0.234375 3.140625 -0.265625 L 1.96875 -0.375 C 1.789062 -0.195312 1.648438 -0.0390625 1.546875 0.09375 C 1.453125 0.238281 1.40625 0.390625 1.40625 0.546875 C 1.40625 0.785156 1.5 0.957031 1.6875 1.0625 C 1.882812 1.164062 2.226562 1.21875 2.71875 1.21875 Z M 2.71875 1.21875 "/>
      </g>
    </g>
  </g>
  <g fill="#023047" fill-opacity="1" transform="matrix(1, 0, 0, 1, -57.219669, -9.698378)">
    <g transform="translate(208.132749, 305.700993)">
      <g>
        <path d="M 2.453125 -10.40625 L 3.859375 -10.40625 L 6.078125 0 L 4.703125 0 L 4.21875 -2.625 L 2.109375 -2.625 L 1.609375 0 L 0.25 0 Z M 4.03125 -3.65625 L 3.15625 -8.34375 L 2.296875 -3.65625 Z M 4.03125 -3.65625 "/>
      </g>
    </g>
  </g>
  <g fill="#023047" fill-opacity="1" transform="matrix(1, 0, 0, 1, -57.219669, -9.698378)">
    <g transform="translate(215.001612, 305.700993)">
      <g>
        <path d="M 2.421875 0.109375 C 1.773438 0.109375 1.300781 -0.125 1 -0.59375 C 0.695312 -1.0625 0.546875 -1.835938 0.546875 -2.921875 L 0.546875 -4.359375 C 0.546875 -5.335938 0.675781 -6.109375 0.9375 -6.671875 C 1.195312 -7.242188 1.675781 -7.53125 2.375 -7.53125 C 2.8125 -7.53125 3.222656 -7.335938 3.609375 -6.953125 L 3.609375 -10.40625 L 4.984375 -10.40625 L 4.984375 0 L 3.609375 0 L 3.609375 -0.46875 C 3.242188 -0.0820312 2.847656 0.109375 2.421875 0.109375 Z M 2.765625 -0.96875 C 3.035156 -0.96875 3.316406 -1.066406 3.609375 -1.265625 L 3.609375 -6.125 C 3.296875 -6.34375 3.003906 -6.453125 2.734375 -6.453125 C 2.191406 -6.453125 1.921875 -5.929688 1.921875 -4.890625 L 1.921875 -2.796875 C 1.921875 -2.203125 1.976562 -1.75 2.09375 -1.4375 C 2.207031 -1.125 2.429688 -0.96875 2.765625 -0.96875 Z M 2.765625 -0.96875 "/>
      </g>
    </g>
  </g>
  <g fill="#023047" fill-opacity="1" transform="matrix(1, 0, 0, 1, -57.219669, -9.698378)">
    <g transform="translate(221.228538, 305.700993)">
      <g>
        <path d="M 0.1875 -7.421875 L 1.578125 -7.421875 L 2.484375 -1.453125 L 3.421875 -7.421875 L 4.75 -7.421875 L 3.34375 0 L 1.65625 0 Z M 0.1875 -7.421875 "/>
      </g>
    </g>
  </g>
  <g fill="#023047" fill-opacity="1" transform="matrix(1, 0, 0, 1, -57.219669, -9.698378)">
    <g transform="translate(226.723675, 305.700993)">
      <g>
        <path d="M 2.75 0.109375 C 2.175781 0.109375 1.726562 0 1.40625 -0.21875 C 1.09375 -0.4375 0.867188 -0.757812 0.734375 -1.1875 C 0.609375 -1.625 0.546875 -2.179688 0.546875 -2.859375 L 0.546875 -4.5625 C 0.546875 -5.582031 0.707031 -6.332031 1.03125 -6.8125 C 1.351562 -7.289062 1.925781 -7.53125 2.75 -7.53125 C 3.34375 -7.53125 3.789062 -7.40625 4.09375 -7.15625 C 4.40625 -6.90625 4.609375 -6.554688 4.703125 -6.109375 C 4.804688 -5.660156 4.859375 -5.054688 4.859375 -4.296875 L 4.859375 -3.6875 L 1.921875 -3.6875 L 1.921875 -2.203125 C 1.921875 -1.742188 1.988281 -1.410156 2.125 -1.203125 C 2.257812 -1.003906 2.472656 -0.90625 2.765625 -0.90625 C 3.054688 -0.90625 3.25 -1.003906 3.34375 -1.203125 C 3.445312 -1.410156 3.5 -1.71875 3.5 -2.125 L 3.5 -2.578125 L 4.84375 -2.578125 L 4.84375 -2.296875 C 4.84375 -1.515625 4.675781 -0.914062 4.34375 -0.5 C 4.007812 -0.09375 3.476562 0.109375 2.75 0.109375 Z M 3.5 -4.4375 L 3.5 -5.09375 C 3.5 -5.601562 3.453125 -5.96875 3.359375 -6.1875 C 3.265625 -6.40625 3.054688 -6.515625 2.734375 -6.515625 C 2.515625 -6.515625 2.347656 -6.460938 2.234375 -6.359375 C 2.117188 -6.253906 2.035156 -6.082031 1.984375 -5.84375 C 1.941406 -5.613281 1.921875 -5.273438 1.921875 -4.828125 L 1.921875 -4.4375 Z M 3.5 -4.4375 "/>
      </g>
    </g>
  </g>
  <g fill="#023047" fill-opacity="1" transform="matrix(1, 0, 0, 1, -57.219669, -9.698378)">
    <g transform="translate(232.681004, 305.700993)">
      <g>
        <path d="M 0.6875 -7.421875 L 2.0625 -7.421875 L 2.0625 -6.6875 C 2.65625 -7.25 3.257812 -7.53125 3.875 -7.53125 C 4.28125 -7.53125 4.566406 -7.382812 4.734375 -7.09375 C 4.910156 -6.800781 5 -6.441406 5 -6.015625 L 5 0 L 3.625 0 L 3.625 -5.609375 C 3.625 -5.890625 3.578125 -6.097656 3.484375 -6.234375 C 3.398438 -6.378906 3.25 -6.453125 3.03125 -6.453125 C 2.757812 -6.453125 2.4375 -6.296875 2.0625 -5.984375 L 2.0625 0 L 0.6875 0 Z M 0.6875 -7.421875 "/>
      </g>
    </g>
  </g>
  <g fill="#023047" fill-opacity="1" transform="matrix(1, 0, 0, 1, -57.219669, -9.698378)">
    <g transform="translate(238.869428, 305.700993)">
      <g>
        <path d="M 2.671875 0.109375 C 1.597656 0.109375 1.0625 -0.484375 1.0625 -1.671875 L 1.0625 -6.515625 L 0.28125 -6.515625 L 0.28125 -7.421875 L 1.0625 -7.421875 L 1.0625 -9.59375 L 2.4375 -9.59375 L 2.4375 -7.421875 L 3.640625 -7.421875 L 3.640625 -6.515625 L 2.4375 -6.515625 L 2.4375 -1.765625 C 2.4375 -1.460938 2.484375 -1.25 2.578125 -1.125 C 2.671875 -1.007812 2.851562 -0.953125 3.125 -0.953125 C 3.289062 -0.953125 3.457031 -0.960938 3.625 -0.984375 L 3.625 0.03125 C 3.28125 0.0820312 2.960938 0.109375 2.671875 0.109375 Z M 2.671875 0.109375 "/>
      </g>
    </g>
  </g>
  <g fill="#023047" fill-opacity="1" transform="matrix(1, 0, 0, 1, -57.219669, -9.698378)">
    <g transform="translate(243.375991, 305.700993)">
      <g>
        <path d="M 1.765625 0.109375 C 1.359375 0.109375 1.066406 -0.0351562 0.890625 -0.328125 C 0.722656 -0.617188 0.640625 -0.976562 0.640625 -1.40625 L 0.640625 -7.421875 L 2.015625 -7.421875 L 2.015625 -1.828125 C 2.015625 -1.546875 2.054688 -1.332031 2.140625 -1.1875 C 2.222656 -1.039062 2.378906 -0.96875 2.609375 -0.96875 C 2.878906 -0.96875 3.203125 -1.125 3.578125 -1.4375 L 3.578125 -7.421875 L 4.9375 -7.421875 L 4.9375 0 L 3.578125 0 L 3.578125 -0.734375 C 2.984375 -0.171875 2.378906 0.109375 1.765625 0.109375 Z M 1.765625 0.109375 "/>
      </g>
    </g>
  </g>
  <g fill="#023047" fill-opacity="1" transform="matrix(1, 0, 0, 1, -57.219669, -9.698378)">
    <g transform="translate(249.577246, 305.700993)">
      <g>
        <path d="M 0.734375 -7.421875 L 2.109375 -7.421875 L 2.109375 -6.375 C 2.359375 -6.789062 2.617188 -7.082031 2.890625 -7.25 C 3.160156 -7.425781 3.445312 -7.515625 3.75 -7.515625 C 3.820312 -7.515625 3.894531 -7.507812 3.96875 -7.5 L 3.96875 -5.984375 C 3.695312 -6.085938 3.445312 -6.140625 3.21875 -6.140625 C 2.988281 -6.140625 2.785156 -6.082031 2.609375 -5.96875 C 2.429688 -5.863281 2.265625 -5.679688 2.109375 -5.421875 L 2.109375 0 L 0.734375 0 Z M 0.734375 -7.421875 "/>
      </g>
    </g>
  </g>
  <g fill="#023047" fill-opacity="1" transform="matrix(1, 0, 0, 1, -57.219669, -9.698378)">
    <g transform="translate(254.250713, 305.700993)">
      <g>
        <path d="M 2.75 0.109375 C 2.175781 0.109375 1.726562 0 1.40625 -0.21875 C 1.09375 -0.4375 0.867188 -0.757812 0.734375 -1.1875 C 0.609375 -1.625 0.546875 -2.179688 0.546875 -2.859375 L 0.546875 -4.5625 C 0.546875 -5.582031 0.707031 -6.332031 1.03125 -6.8125 C 1.351562 -7.289062 1.925781 -7.53125 2.75 -7.53125 C 3.34375 -7.53125 3.789062 -7.40625 4.09375 -7.15625 C 4.40625 -6.90625 4.609375 -6.554688 4.703125 -6.109375 C 4.804688 -5.660156 4.859375 -5.054688 4.859375 -4.296875 L 4.859375 -3.6875 L 1.921875 -3.6875 L 1.921875 -2.203125 C 1.921875 -1.742188 1.988281 -1.410156 2.125 -1.203125 C 2.257812 -1.003906 2.472656 -0.90625 2.765625 -0.90625 C 3.054688 -0.90625 3.25 -1.003906 3.34375 -1.203125 C 3.445312 -1.410156 3.5 -1.71875 3.5 -2.125 L 3.5 -2.578125 L 4.84375 -2.578125 L 4.84375 -2.296875 C 4.84375 -1.515625 4.675781 -0.914062 4.34375 -0.5 C 4.007812 -0.09375 3.476562 0.109375 2.75 0.109375 Z M 3.5 -4.4375 L 3.5 -5.09375 C 3.5 -5.601562 3.453125 -5.96875 3.359375 -6.1875 C 3.265625 -6.40625 3.054688 -6.515625 2.734375 -6.515625 C 2.515625 -6.515625 2.347656 -6.460938 2.234375 -6.359375 C 2.117188 -6.253906 2.035156 -6.082031 1.984375 -5.84375 C 1.941406 -5.613281 1.921875 -5.273438 1.921875 -4.828125 L 1.921875 -4.4375 Z M 3.5 -4.4375 "/>
      </g>
    </g>
  </g>
  <g fill="#023047" fill-opacity="1" transform="matrix(1, 0, 0, 1, -57.219669, -9.698378)">
    <g transform="translate(260.208041, 305.700993)">
      <g>
        <path d="M 2.421875 0.109375 C 1.816406 0.109375 1.328125 -0.078125 0.953125 -0.453125 C 0.578125 -0.835938 0.367188 -1.347656 0.328125 -1.984375 L 1.46875 -2.328125 C 1.53125 -1.847656 1.644531 -1.488281 1.8125 -1.25 C 1.976562 -1.019531 2.21875 -0.90625 2.53125 -0.90625 C 2.769531 -0.90625 2.953125 -0.972656 3.078125 -1.109375 C 3.210938 -1.253906 3.28125 -1.453125 3.28125 -1.703125 C 3.28125 -1.910156 3.234375 -2.097656 3.140625 -2.265625 C 3.046875 -2.441406 2.894531 -2.617188 2.6875 -2.796875 L 1.40625 -3.890625 C 1.113281 -4.140625 0.890625 -4.398438 0.734375 -4.671875 C 0.578125 -4.953125 0.5 -5.296875 0.5 -5.703125 C 0.5 -6.273438 0.671875 -6.722656 1.015625 -7.046875 C 1.359375 -7.367188 1.828125 -7.53125 2.421875 -7.53125 C 2.984375 -7.53125 3.421875 -7.347656 3.734375 -6.984375 C 4.054688 -6.617188 4.242188 -6.148438 4.296875 -5.578125 L 3.375 -5.234375 C 3.3125 -5.648438 3.210938 -5.96875 3.078125 -6.1875 C 2.941406 -6.40625 2.738281 -6.515625 2.46875 -6.515625 C 2.238281 -6.515625 2.054688 -6.441406 1.921875 -6.296875 C 1.796875 -6.148438 1.734375 -5.96875 1.734375 -5.75 C 1.734375 -5.476562 1.859375 -5.234375 2.109375 -5.015625 L 3.421875 -3.796875 C 3.753906 -3.492188 4.007812 -3.191406 4.1875 -2.890625 C 4.375 -2.585938 4.46875 -2.222656 4.46875 -1.796875 C 4.46875 -1.179688 4.28125 -0.707031 3.90625 -0.375 C 3.539062 -0.0507812 3.046875 0.109375 2.421875 0.109375 Z M 2.421875 0.109375 "/>
      </g>
    </g>
  </g>
  <g fill="#023047" fill-opacity="1" transform="matrix(1, 0, 0, 1, -57.219669, -9.698378)">
    <g transform="translate(269.054266, 305.700993)">
      <g>
        <path d="M 3.421875 0.109375 C 2.390625 0.109375 1.660156 -0.191406 1.234375 -0.796875 C 0.816406 -1.410156 0.609375 -2.257812 0.609375 -3.34375 L 0.609375 -7.015625 C 0.609375 -8.148438 0.8125 -9.015625 1.21875 -9.609375 C 1.632812 -10.203125 2.367188 -10.5 3.421875 -10.5 C 4.347656 -10.5 5.015625 -10.242188 5.421875 -9.734375 C 5.828125 -9.234375 6.03125 -8.488281 6.03125 -7.5 L 6.03125 -6.671875 L 4.65625 -6.671875 L 4.65625 -7.40625 C 4.65625 -7.882812 4.632812 -8.253906 4.59375 -8.515625 C 4.550781 -8.773438 4.441406 -8.976562 4.265625 -9.125 C 4.085938 -9.28125 3.804688 -9.359375 3.421875 -9.359375 C 3.035156 -9.359375 2.742188 -9.273438 2.546875 -9.109375 C 2.359375 -8.941406 2.234375 -8.707031 2.171875 -8.40625 C 2.109375 -8.113281 2.078125 -7.722656 2.078125 -7.234375 L 2.078125 -3.109375 C 2.078125 -2.578125 2.117188 -2.160156 2.203125 -1.859375 C 2.296875 -1.554688 2.4375 -1.34375 2.625 -1.21875 C 2.820312 -1.09375 3.085938 -1.03125 3.421875 -1.03125 C 3.796875 -1.03125 4.070312 -1.109375 4.25 -1.265625 C 4.425781 -1.429688 4.535156 -1.65625 4.578125 -1.9375 C 4.628906 -2.21875 4.65625 -2.601562 4.65625 -3.09375 L 4.65625 -3.859375 L 6.03125 -3.859375 L 6.03125 -3.09375 C 6.03125 -2.0625 5.835938 -1.269531 5.453125 -0.71875 C 5.066406 -0.164062 4.390625 0.109375 3.421875 0.109375 Z M 3.421875 0.109375 "/>
      </g>
    </g>
  </g>
  <g fill="#023047" fill-opacity="1" transform="matrix(1, 0, 0, 1, -57.219669, -9.698378)">
    <g transform="translate(276.218414, 305.700993)">
      <g>
        <path d="M 2.734375 0.109375 C 1.941406 0.109375 1.378906 -0.125 1.046875 -0.59375 C 0.722656 -1.0625 0.5625 -1.742188 0.5625 -2.640625 L 0.5625 -4.796875 C 0.5625 -5.679688 0.722656 -6.359375 1.046875 -6.828125 C 1.378906 -7.296875 1.941406 -7.53125 2.734375 -7.53125 C 3.515625 -7.53125 4.066406 -7.296875 4.390625 -6.828125 C 4.722656 -6.359375 4.890625 -5.679688 4.890625 -4.796875 L 4.890625 -2.640625 C 4.890625 -1.742188 4.722656 -1.0625 4.390625 -0.59375 C 4.066406 -0.125 3.515625 0.109375 2.734375 0.109375 Z M 2.734375 -0.90625 C 2.984375 -0.90625 3.160156 -0.976562 3.265625 -1.125 C 3.378906 -1.269531 3.445312 -1.445312 3.46875 -1.65625 C 3.5 -1.875 3.515625 -2.171875 3.515625 -2.546875 L 3.515625 -4.875 C 3.515625 -5.238281 3.5 -5.53125 3.46875 -5.75 C 3.445312 -5.96875 3.378906 -6.148438 3.265625 -6.296875 C 3.160156 -6.441406 2.984375 -6.515625 2.734375 -6.515625 C 2.484375 -6.515625 2.300781 -6.441406 2.1875 -6.296875 C 2.070312 -6.148438 2 -5.96875 1.96875 -5.75 C 1.945312 -5.53125 1.9375 -5.238281 1.9375 -4.875 L 1.9375 -2.546875 C 1.9375 -2.171875 1.945312 -1.875 1.96875 -1.65625 C 2 -1.445312 2.070312 -1.269531 2.1875 -1.125 C 2.300781 -0.976562 2.484375 -0.90625 2.734375 -0.90625 Z M 2.734375 -0.90625 "/>
      </g>
    </g>
  </g>
  <g fill="#023047" fill-opacity="1" transform="matrix(1, 0, 0, 1, -57.219669, -9.698378)">
    <g transform="translate(282.227085, 305.700993)">
      <g>
        <path d="M 0.625 -1.53125 L 2 -1.53125 L 2 0 L 0.625 0 Z M 0.625 -1.53125 "/>
      </g>
    </g>
  </g>
  <g fill="#ffffff" fill-opacity="1" transform="matrix(1, 0, 0, 1, -57.219669, -9.698378)">
    <g transform="translate(79.228907, 301.206434)">
      <g>
        <path d="M 3.828125 -4.25 C 5.503906 -4.550781 7.367188 -6.019531 9.421875 -8.65625 C 11.472656 -11.289062 12.472656 -13.035156 12.421875 -13.890625 C 11.703125 -14.285156 10.863281 -15.109375 9.90625 -16.359375 C 8.957031 -17.617188 8.457031 -18.25 8.40625 -18.25 C 7.070312 -16.425781 5.957031 -14.421875 5.0625 -12.234375 C 3.6875 -8.535156 3.113281 -6.0625 3.34375 -4.8125 C 3.414062 -4.382812 3.578125 -4.195312 3.828125 -4.25 Z M 17.265625 -26.46875 C 16.742188 -26.375 15.804688 -25.367188 14.453125 -23.453125 C 13.097656 -21.535156 12.476562 -20.265625 12.59375 -19.640625 C 12.625 -19.484375 12.835938 -19.195312 13.234375 -18.78125 C 13.628906 -18.375 13.90625 -18.1875 14.0625 -18.21875 C 14.945312 -18.375 15.757812 -19.617188 16.5 -21.953125 C 17.238281 -24.296875 17.578125 -25.632812 17.515625 -25.96875 C 17.453125 -26.3125 17.367188 -26.476562 17.265625 -26.46875 Z M 19.25 -16.40625 C 20.695312 -16.675781 22.8125 -17.976562 25.59375 -20.3125 C 28.382812 -22.644531 30.789062 -24.914062 32.8125 -27.125 L 35.84375 -30.5 C 36.375 -30.207031 36.6875 -29.800781 36.78125 -29.28125 C 36.875 -28.757812 36.722656 -28.253906 36.328125 -27.765625 C 29.171875 -18.210938 23.378906 -13.035156 18.953125 -12.234375 C 18.628906 -12.171875 18.144531 -12.140625 17.5 -12.140625 C 12.84375 -4.242188 8.40625 0.0859375 4.1875 0.859375 C 1.300781 0.953125 -0.648438 0.273438 -1.671875 -1.171875 C -2.222656 -1.859375 -2.609375 -2.800781 -2.828125 -4 C -3.453125 -7.445312 -2.21875 -11.914062 0.875 -17.40625 C 3.976562 -22.894531 8.320312 -27.304688 13.90625 -30.640625 C 14.4375 -30.734375 14.851562 -30.679688 15.15625 -30.484375 C 15.46875 -30.296875 15.722656 -30.207031 15.921875 -30.21875 C 16.128906 -30.226562 16.382812 -30.382812 16.6875 -30.6875 C 16.988281 -30.988281 17.421875 -31.203125 17.984375 -31.328125 C 18.546875 -31.460938 19.203125 -31.25 19.953125 -30.6875 C 20.921875 -30.15625 21.492188 -29.390625 21.671875 -28.390625 C 22.203125 -25.472656 21.394531 -21.476562 19.25 -16.40625 Z M 19.25 -16.40625 "/>
      </g>
    </g>
  </g>
  <g fill="#ffffff" fill-opacity="1" transform="matrix(1, 0, 0, 1, -57.219669, -9.698378)">
    <g transform="translate(104.882871, 296.556798)">
      <g>
        <path d="M 3.5625 0.078125 C 3.582031 0.179688 3.757812 0.421875 4.09375 0.796875 C 5.03125 1.816406 5.71875 3.523438 6.15625 5.921875 C 6.59375 8.316406 5.921875 11.648438 4.140625 15.921875 C 2.359375 20.203125 0.09375 24.03125 -2.65625 27.40625 C -5.414062 30.789062 -7.835938 32.675781 -9.921875 33.0625 C -12.523438 33.53125 -14.597656 31.484375 -16.140625 26.921875 C -17.304688 20.453125 -14.132812 11.046875 -6.625 -1.296875 L 27.265625 -57.28125 C 27.378906 -58.382812 28.066406 -59.050781 29.328125 -59.28125 C 31.253906 -59.625 32.570312 -59.617188 33.28125 -59.265625 C 33.988281 -58.910156 34.398438 -58.40625 34.515625 -57.75 C 34.640625 -57.09375 34.269531 -56.039062 33.40625 -54.59375 L 2.78125 -6 C 2.84375 -5.957031 3.015625 -5.960938 3.296875 -6.015625 C 3.585938 -6.066406 3.882812 -6.195312 4.1875 -6.40625 C 12.894531 -13.320312 21.28125 -21.085938 29.34375 -29.703125 C 29.875 -29.429688 30.1875 -29.035156 30.28125 -28.515625 C 30.382812 -27.992188 30.234375 -27.453125 29.828125 -26.890625 C 29.421875 -26.328125 28.851562 -25.535156 28.125 -24.515625 C 27.394531 -23.492188 25.957031 -21.617188 23.8125 -18.890625 C 21.664062 -16.160156 19.570312 -13.65625 17.53125 -11.375 C 15.488281 -9.101562 13.160156 -6.835938 10.546875 -4.578125 C 7.941406 -2.328125 5.613281 -0.773438 3.5625 0.078125 Z M -10.703125 26.09375 C -9.347656 25.851562 -7.550781 24.15625 -5.3125 21 C -3.082031 17.84375 -1.175781 14.394531 0.40625 10.65625 C 1.988281 6.925781 2.617188 4.1875 2.296875 2.4375 C 1.984375 0.695312 1.28125 -0.0703125 0.1875 0.125 C -0.28125 0.207031 -0.78125 0.566406 -1.3125 1.203125 C -3.382812 4.054688 -5.242188 7.460938 -6.890625 11.421875 C -8.535156 15.390625 -9.691406 18.644531 -10.359375 21.1875 C -11.035156 23.738281 -11.335938 25.207031 -11.265625 25.59375 C -11.203125 25.988281 -11.015625 26.15625 -10.703125 26.09375 Z M -10.703125 26.09375 "/>
      </g>
    </g>
  </g>
  <g fill="#ffffff" fill-opacity="1" transform="matrix(1, 0, 0, 1, -57.219669, -9.698378)">
    <g transform="translate(143.050974, 289.639045)">
      <g>
        <path d="M -6.03125 -40.421875 C -6.175781 -41.203125 -5.78125 -41.976562 -4.84375 -42.75 L 3.65625 -48 C 3.851562 -48.132812 4.144531 -48.238281 4.53125 -48.3125 C 4.925781 -48.382812 5.3125 -48.265625 5.6875 -47.953125 C 6.0625 -47.648438 6.429688 -47.53125 6.796875 -47.59375 C 7.160156 -47.664062 7.898438 -47.945312 9.015625 -48.4375 C 10.140625 -48.9375 11.65625 -49.585938 13.5625 -50.390625 C 15.46875 -51.191406 17.609375 -52.023438 19.984375 -52.890625 C 25.523438 -54.929688 31.398438 -56.515625 37.609375 -57.640625 C 44.960938 -58.972656 50.328125 -59.375 53.703125 -58.84375 C 55.046875 -58.601562 56.21875 -58.15625 57.21875 -57.5 C 58.226562 -56.851562 58.835938 -55.957031 59.046875 -54.8125 C 59.171875 -54.132812 58.769531 -53.707031 57.84375 -53.53125 C 44.863281 -50.8125 34.34375 -48.046875 26.28125 -45.234375 C 25.46875 -44.972656 25.101562 -44.613281 25.1875 -44.15625 C 25.21875 -43.988281 25.257812 -43.84375 25.3125 -43.71875 C 25.363281 -43.601562 25.222656 -43.265625 24.890625 -42.703125 L 17.765625 -31.65625 C 17.472656 -31.226562 17.34375 -30.921875 17.375 -30.734375 C 17.40625 -30.546875 17.484375 -30.460938 17.609375 -30.484375 C 17.734375 -30.503906 18.050781 -30.617188 18.5625 -30.828125 C 21.914062 -31.648438 25.023438 -32.320312 27.890625 -32.84375 C 30.753906 -33.363281 32.425781 -33.5 32.90625 -33.25 C 35.507812 -31.957031 37.050781 -31.085938 37.53125 -30.640625 C 38.019531 -30.191406 38.296875 -29.804688 38.359375 -29.484375 C 38.484375 -28.804688 37.984375 -28.289062 36.859375 -27.9375 C 23.335938 -24.082031 16.03125 -22.066406 14.9375 -21.890625 C 13.84375 -21.722656 13.132812 -21.613281 12.8125 -21.5625 C 11.976562 -21.40625 11.160156 -20.582031 10.359375 -19.09375 L 3.109375 -4.671875 C 2.921875 -4.210938 2.84375 -3.890625 2.875 -3.703125 C 2.90625 -3.523438 3.023438 -3.453125 3.234375 -3.484375 C 3.453125 -3.523438 3.75 -3.6875 4.125 -3.96875 C 8.875 -5.65625 13.375 -6.882812 17.625 -7.65625 C 21.882812 -8.425781 25.082031 -8.863281 27.21875 -8.96875 C 30.082031 -9.488281 33.535156 -7.9375 37.578125 -4.3125 C 37.910156 -3.988281 38.101562 -3.671875 38.15625 -3.359375 C 38.21875 -3.046875 37.851562 -2.820312 37.0625 -2.6875 C 24.082031 -0.332031 14.25 1.71875 7.5625 3.46875 C 7.3125 3.570312 6.976562 3.660156 6.5625 3.734375 C 4.332031 4.140625 2.703125 3.898438 1.671875 3.015625 C 1.460938 2.722656 1.175781 2.609375 0.8125 2.671875 C 0.445312 2.742188 0.15625 2.988281 -0.0625 3.40625 C -0.289062 3.820312 -0.484375 4.039062 -0.640625 4.0625 C -0.796875 4.09375 -1.132812 3.992188 -1.65625 3.765625 C -2.175781 3.535156 -2.753906 3.085938 -3.390625 2.421875 C -4.023438 1.765625 -4.421875 1.003906 -4.578125 0.140625 C -4.734375 -0.710938 -4.707031 -1.535156 -4.5 -2.328125 C -4.289062 -3.128906 -4.015625 -4.148438 -3.671875 -5.390625 C -3.335938 -6.628906 -2.472656 -8.816406 -1.078125 -11.953125 C 0.316406 -15.085938 1.878906 -17.835938 3.609375 -20.203125 C 3.816406 -20.503906 3.898438 -20.769531 3.859375 -21 C 3.816406 -21.238281 3.519531 -21.304688 2.96875 -21.203125 C 2.425781 -21.109375 1.847656 -21.207031 1.234375 -21.5 C 0.617188 -21.800781 0.25 -22.300781 0.125 -23 C 0 -23.707031 0.800781 -24.460938 2.53125 -25.265625 L 6.546875 -27.125 C 6.597656 -27.132812 6.625 -27.140625 6.625 -27.140625 C 7.46875 -27.285156 8.207031 -27.984375 8.84375 -29.234375 C 13.8125 -36.222656 16.914062 -40.179688 18.15625 -41.109375 C 18.5625 -41.492188 18.75 -41.78125 18.71875 -41.96875 C 18.6875 -42.15625 18.515625 -42.21875 18.203125 -42.15625 C 17.890625 -42.101562 17.640625 -42.03125 17.453125 -41.9375 C 12.734375 -40.269531 8.9375 -39.175781 6.0625 -38.65625 C 3.195312 -38.132812 1.09375 -37.882812 -0.25 -37.90625 C -1.601562 -37.9375 -2.625 -38.082031 -3.3125 -38.34375 C -4.832031 -38.96875 -5.691406 -39.53125 -5.890625 -40.03125 Z M -6.03125 -40.421875 "/>
      </g>
    </g>
  </g>
  <g fill="#ffffff" fill-opacity="1" transform="matrix(1, 0, 0, 1, -57.219669, -9.698378)">
    <g transform="translate(181.610139, 282.650415)">
      <g>
        <path d="M 5 -7.6875 C 5.625 -7.800781 7.304688 -9.425781 10.046875 -12.5625 C 12.796875 -15.695312 15.390625 -18.804688 17.828125 -21.890625 L 21.4375 -26.5 C 21.613281 -26.757812 21.695312 -26.925781 21.6875 -27 C 21.675781 -27.082031 21.585938 -27.109375 21.421875 -27.078125 C 19.453125 -26.710938 17.078125 -25.109375 14.296875 -22.265625 C 11.523438 -19.421875 9.210938 -16.523438 7.359375 -13.578125 C 5.503906 -10.628906 4.65625 -8.707031 4.8125 -7.8125 C 4.832031 -7.707031 4.894531 -7.664062 5 -7.6875 Z M 18.71875 -8.96875 C 18.75 -8.820312 18.929688 -8.773438 19.265625 -8.828125 C 19.609375 -8.890625 21 -9.945312 23.4375 -12 C 29.789062 -17.300781 37.15625 -24.179688 45.53125 -32.640625 C 46.0625 -32.367188 46.375 -31.972656 46.46875 -31.453125 C 46.570312 -30.929688 46.40625 -30.382812 45.96875 -29.8125 C 45.53125 -29.25 44.910156 -28.4375 44.109375 -27.375 C 43.304688 -26.3125 41.753906 -24.390625 39.453125 -21.609375 C 37.148438 -18.828125 35 -16.285156 33 -13.984375 C 27.75 -7.910156 23.742188 -4.164062 20.984375 -2.75 C 20.097656 -2.3125 19.101562 -1.992188 18 -1.796875 C 16.9375 -1.773438 15.914062 -2 14.9375 -2.46875 C 13.96875 -2.9375 13.40625 -3.585938 13.25 -4.421875 C 13.101562 -5.265625 13.078125 -6.539062 13.171875 -8.25 C 13.265625 -9.957031 13.296875 -10.875 13.265625 -11 C 13.242188 -11.125 13.191406 -11.179688 13.109375 -11.171875 C 13.035156 -11.160156 12.914062 -11.03125 12.75 -10.78125 C 12.195312 -9.9375 11.492188 -8.882812 10.640625 -7.625 C 9.796875 -6.363281 8.269531 -4.601562 6.0625 -2.34375 C 3.863281 -0.09375 1.984375 1.171875 0.421875 1.453125 C 0.148438 1.460938 -0.191406 1.429688 -0.609375 1.359375 C -1.023438 1.296875 -1.613281 0.957031 -2.375 0.34375 C -3.132812 -0.269531 -3.632812 -1.253906 -3.875 -2.609375 C -4.125 -3.972656 -3.484375 -6.234375 -1.953125 -9.390625 C -0.421875 -12.546875 1.5625 -15.726562 4 -18.9375 C 6.4375 -22.144531 9.222656 -25.054688 12.359375 -27.671875 C 15.492188 -30.296875 18.363281 -31.84375 20.96875 -32.3125 C 21.894531 -32.476562 22.796875 -31.910156 23.671875 -30.609375 C 23.566406 -30.972656 24.835938 -33.644531 27.484375 -38.625 C 30.140625 -43.601562 33.425781 -48.71875 37.34375 -53.96875 C 41.269531 -59.226562 44.535156 -62.097656 47.140625 -62.578125 C 48.023438 -62.734375 48.546875 -62.398438 48.703125 -61.578125 C 48.929688 -60.273438 48.375 -58.34375 47.03125 -55.78125 C 45.695312 -53.21875 44.195312 -50.789062 42.53125 -48.5 C 40.875 -46.21875 38.722656 -43.320312 36.078125 -39.8125 C 29.929688 -31.8125 25.421875 -25.128906 22.546875 -19.765625 C 19.671875 -14.398438 18.394531 -10.800781 18.71875 -8.96875 Z M 18.71875 -8.96875 "/>
      </g>
    </g>
  </g>
  <g fill="#ffffff" fill-opacity="1" transform="matrix(1, 0, 0, 1, -57.219669, -9.698378)">
    <g transform="translate(216.571501, 276.313866)">
      <g>
        <path d="M 19.96875 -28 C 18.613281 -27.757812 16.570312 -25.953125 13.84375 -22.578125 C 11.113281 -19.203125 9.804688 -17.203125 9.921875 -16.578125 C 9.941406 -16.472656 10.03125 -16.4375 10.1875 -16.46875 C 11.332031 -16.675781 13.378906 -18.363281 16.328125 -21.53125 C 19.273438 -24.707031 20.664062 -26.769531 20.5 -27.71875 C 20.445312 -27.96875 20.269531 -28.0625 19.96875 -28 Z M 7.828125 0.046875 C 3.816406 0.773438 1.367188 -1.316406 0.484375 -6.234375 C -0.078125 -9.304688 0.671875 -12.816406 2.734375 -16.765625 C 4.796875 -20.722656 7.453125 -24.140625 10.703125 -27.015625 C 13.953125 -29.898438 16.984375 -31.597656 19.796875 -32.109375 C 21.046875 -32.328125 22.289062 -32.035156 23.53125 -31.234375 C 24.78125 -30.429688 25.492188 -29.566406 25.671875 -28.640625 C 25.984375 -26.910156 25.109375 -24.742188 23.046875 -22.140625 C 20.992188 -19.535156 18.742188 -17.320312 16.296875 -15.5 C 13.847656 -13.6875 12.191406 -12.703125 11.328125 -12.546875 C 10.472656 -12.390625 9.765625 -12.671875 9.203125 -13.390625 C 8.972656 -13.503906 8.675781 -13.523438 8.3125 -13.453125 C 7.945312 -13.390625 7.46875 -12.585938 6.875 -11.046875 C 6.289062 -9.515625 6.078125 -8.316406 6.234375 -7.453125 C 6.390625 -6.597656 6.796875 -6.125 7.453125 -6.03125 C 11.421875 -6.75 15.515625 -8.691406 19.734375 -11.859375 C 23.960938 -15.023438 29.640625 -20.269531 36.765625 -27.59375 C 37.265625 -28.101562 38.023438 -28.882812 39.046875 -29.9375 C 40.066406 -30.988281 40.664062 -31.601562 40.84375 -31.78125 C 41.375 -31.519531 41.6875 -31.128906 41.78125 -30.609375 C 41.882812 -30.085938 41.738281 -29.566406 41.34375 -29.046875 C 39.207031 -25.972656 36.359375 -22.441406 32.796875 -18.453125 C 29.242188 -14.472656 25.039062 -10.546875 20.1875 -6.671875 C 15.34375 -2.804688 11.222656 -0.566406 7.828125 0.046875 Z M 7.828125 0.046875 "/>
      </g>
    </g>
  </g>
  <g fill="#ffffff" fill-opacity="1" transform="matrix(1, 0, 0, 1, -57.219669, -9.698378)">
    <g transform="translate(245.041155, 271.153902)">
      <g>
        <path d="M 12.4375 -29 C 12.851562 -29.070312 13.578125 -28.984375 14.609375 -28.734375 C 15.648438 -28.484375 16.21875 -28.101562 16.3125 -27.59375 C 16.382812 -27.226562 16.328125 -26.835938 16.140625 -26.421875 L 11.734375 -17.234375 C 11.210938 -16.273438 10.957031 -15.742188 10.96875 -15.640625 C 10.988281 -15.535156 11.023438 -15.488281 11.078125 -15.5 L 11.4375 -15.796875 C 16.707031 -21.128906 21.015625 -25.738281 24.359375 -29.625 C 24.992188 -30.269531 25.554688 -30.640625 26.046875 -30.734375 C 26.546875 -30.828125 26.882812 -30.832031 27.0625 -30.75 L 29.375 -30.53125 C 29.925781 -30.363281 30.238281 -30.066406 30.3125 -29.640625 C 30.394531 -29.222656 30.359375 -28.867188 30.203125 -28.578125 C 29.410156 -27.296875 28.5 -25.847656 27.46875 -24.234375 C 26.445312 -22.628906 25.6875 -21.414062 25.1875 -20.59375 C 24.6875 -19.78125 24.125 -18.859375 23.5 -17.828125 C 22.875 -16.804688 22.429688 -16.03125 22.171875 -15.5 C 21.921875 -14.96875 21.644531 -14.363281 21.34375 -13.6875 C 21.039062 -13.007812 20.847656 -12.453125 20.765625 -12.015625 C 20.660156 -10.753906 20.691406 -9.675781 20.859375 -8.78125 C 20.941406 -8.320312 21.28125 -8.144531 21.875 -8.25 C 22.476562 -8.363281 23.507812 -8.925781 24.96875 -9.9375 C 26.425781 -10.945312 28.128906 -12.410156 30.078125 -14.328125 C 32.023438 -16.253906 34.582031 -18.941406 37.75 -22.390625 C 40.914062 -25.835938 43.707031 -28.785156 46.125 -31.234375 C 46.664062 -30.941406 46.984375 -30.535156 47.078125 -30.015625 C 47.171875 -29.492188 47.019531 -28.988281 46.625 -28.5 C 45.238281 -26.5625 43.484375 -24.148438 41.359375 -21.265625 C 39.242188 -18.378906 35.9375 -14.425781 31.4375 -9.40625 C 26.945312 -4.394531 23.65625 -1.703125 21.5625 -1.328125 C 17.550781 -0.597656 15.160156 -2.367188 14.390625 -6.640625 C 14.097656 -8.253906 14.414062 -10.066406 15.34375 -12.078125 L 17.875 -17.296875 C 18.09375 -17.816406 18.191406 -18.113281 18.171875 -18.1875 C 18.160156 -18.269531 18.03125 -18.15625 17.78125 -17.84375 C 10.0625 -8.632812 5.070312 -3.148438 2.8125 -1.390625 C 2.445312 -1.066406 1.953125 -0.847656 1.328125 -0.734375 C -0.398438 -0.421875 -1.40625 -1.039062 -1.6875 -2.59375 C -1.78125 -3.113281 -1.734375 -3.613281 -1.546875 -4.09375 C 1.671875 -8.332031 3.851562 -11.710938 5 -14.234375 C 6.03125 -15.710938 7.035156 -17.695312 8.015625 -20.1875 C 8.992188 -22.6875 9.832031 -24.753906 10.53125 -26.390625 C 11.226562 -28.023438 11.863281 -28.894531 12.4375 -29 Z M 12.4375 -29 "/>
      </g>
    </g>
  </g>
  <g fill="#219ebc" fill-opacity="1" transform="matrix(1, 0, 0, 1, -57.219669, -9.698378)">
    <g transform="translate(79.636463, 303.455088)">
      <g>
        <path d="M 3.828125 -4.25 C 5.503906 -4.550781 7.367188 -6.019531 9.421875 -8.65625 C 11.472656 -11.289062 12.472656 -13.035156 12.421875 -13.890625 C 11.703125 -14.285156 10.863281 -15.109375 9.90625 -16.359375 C 8.957031 -17.617188 8.457031 -18.25 8.40625 -18.25 C 7.070312 -16.425781 5.957031 -14.421875 5.0625 -12.234375 C 3.6875 -8.535156 3.113281 -6.0625 3.34375 -4.8125 C 3.414062 -4.382812 3.578125 -4.195312 3.828125 -4.25 Z M 17.265625 -26.46875 C 16.742188 -26.375 15.804688 -25.367188 14.453125 -23.453125 C 13.097656 -21.535156 12.476562 -20.265625 12.59375 -19.640625 C 12.625 -19.484375 12.835938 -19.195312 13.234375 -18.78125 C 13.628906 -18.375 13.90625 -18.1875 14.0625 -18.21875 C 14.945312 -18.375 15.757812 -19.617188 16.5 -21.953125 C 17.238281 -24.296875 17.578125 -25.632812 17.515625 -25.96875 C 17.453125 -26.3125 17.367188 -26.476562 17.265625 -26.46875 Z M 19.25 -16.40625 C 20.695312 -16.675781 22.8125 -17.976562 25.59375 -20.3125 C 28.382812 -22.644531 30.789062 -24.914062 32.8125 -27.125 L 35.84375 -30.5 C 36.375 -30.207031 36.6875 -29.800781 36.78125 -29.28125 C 36.875 -28.757812 36.722656 -28.253906 36.328125 -27.765625 C 29.171875 -18.210938 23.378906 -13.035156 18.953125 -12.234375 C 18.628906 -12.171875 18.144531 -12.140625 17.5 -12.140625 C 12.84375 -4.242188 8.40625 0.0859375 4.1875 0.859375 C 1.300781 0.953125 -0.648438 0.273438 -1.671875 -1.171875 C -2.222656 -1.859375 -2.609375 -2.800781 -2.828125 -4 C -3.453125 -7.445312 -2.21875 -11.914062 0.875 -17.40625 C 3.976562 -22.894531 8.320312 -27.304688 13.90625 -30.640625 C 14.4375 -30.734375 14.851562 -30.679688 15.15625 -30.484375 C 15.46875 -30.296875 15.722656 -30.207031 15.921875 -30.21875 C 16.128906 -30.226562 16.382812 -30.382812 16.6875 -30.6875 C 16.988281 -30.988281 17.421875 -31.203125 17.984375 -31.328125 C 18.546875 -31.460938 19.203125 -31.25 19.953125 -30.6875 C 20.921875 -30.15625 21.492188 -29.390625 21.671875 -28.390625 C 22.203125 -25.472656 21.394531 -21.476562 19.25 -16.40625 Z M 19.25 -16.40625 "/>
      </g>
    </g>
  </g>
  <g fill="#219ebc" fill-opacity="1" transform="matrix(1, 0, 0, 1, -57.219669, -9.698378)">
    <g transform="translate(105.290427, 298.805452)">
      <g>
        <path d="M 3.5625 0.078125 C 3.582031 0.179688 3.757812 0.421875 4.09375 0.796875 C 5.03125 1.816406 5.71875 3.523438 6.15625 5.921875 C 6.59375 8.316406 5.921875 11.648438 4.140625 15.921875 C 2.359375 20.203125 0.09375 24.03125 -2.65625 27.40625 C -5.414062 30.789062 -7.835938 32.675781 -9.921875 33.0625 C -12.523438 33.53125 -14.597656 31.484375 -16.140625 26.921875 C -17.304688 20.453125 -14.132812 11.046875 -6.625 -1.296875 L 27.265625 -57.28125 C 27.378906 -58.382812 28.066406 -59.050781 29.328125 -59.28125 C 31.253906 -59.625 32.570312 -59.617188 33.28125 -59.265625 C 33.988281 -58.910156 34.398438 -58.40625 34.515625 -57.75 C 34.640625 -57.09375 34.269531 -56.039062 33.40625 -54.59375 L 2.78125 -6 C 2.84375 -5.957031 3.015625 -5.960938 3.296875 -6.015625 C 3.585938 -6.066406 3.882812 -6.195312 4.1875 -6.40625 C 12.894531 -13.320312 21.28125 -21.085938 29.34375 -29.703125 C 29.875 -29.429688 30.1875 -29.035156 30.28125 -28.515625 C 30.382812 -27.992188 30.234375 -27.453125 29.828125 -26.890625 C 29.421875 -26.328125 28.851562 -25.535156 28.125 -24.515625 C 27.394531 -23.492188 25.957031 -21.617188 23.8125 -18.890625 C 21.664062 -16.160156 19.570312 -13.65625 17.53125 -11.375 C 15.488281 -9.101562 13.160156 -6.835938 10.546875 -4.578125 C 7.941406 -2.328125 5.613281 -0.773438 3.5625 0.078125 Z M -10.703125 26.09375 C -9.347656 25.851562 -7.550781 24.15625 -5.3125 21 C -3.082031 17.84375 -1.175781 14.394531 0.40625 10.65625 C 1.988281 6.925781 2.617188 4.1875 2.296875 2.4375 C 1.984375 0.695312 1.28125 -0.0703125 0.1875 0.125 C -0.28125 0.207031 -0.78125 0.566406 -1.3125 1.203125 C -3.382812 4.054688 -5.242188 7.460938 -6.890625 11.421875 C -8.535156 15.390625 -9.691406 18.644531 -10.359375 21.1875 C -11.035156 23.738281 -11.335938 25.207031 -11.265625 25.59375 C -11.203125 25.988281 -11.015625 26.15625 -10.703125 26.09375 Z M -10.703125 26.09375 "/>
      </g>
    </g>
  </g>
  <g fill="#219ebc" fill-opacity="1" transform="matrix(1, 0, 0, 1, -57.219669, -9.698378)">
    <g transform="translate(143.45853, 291.887699)">
      <g>
        <path d="M -6.03125 -40.421875 C -6.175781 -41.203125 -5.78125 -41.976562 -4.84375 -42.75 L 3.65625 -48 C 3.851562 -48.132812 4.144531 -48.238281 4.53125 -48.3125 C 4.925781 -48.382812 5.3125 -48.265625 5.6875 -47.953125 C 6.0625 -47.648438 6.429688 -47.53125 6.796875 -47.59375 C 7.160156 -47.664062 7.898438 -47.945312 9.015625 -48.4375 C 10.140625 -48.9375 11.65625 -49.585938 13.5625 -50.390625 C 15.46875 -51.191406 17.609375 -52.023438 19.984375 -52.890625 C 25.523438 -54.929688 31.398438 -56.515625 37.609375 -57.640625 C 44.960938 -58.972656 50.328125 -59.375 53.703125 -58.84375 C 55.046875 -58.601562 56.21875 -58.15625 57.21875 -57.5 C 58.226562 -56.851562 58.835938 -55.957031 59.046875 -54.8125 C 59.171875 -54.132812 58.769531 -53.707031 57.84375 -53.53125 C 44.863281 -50.8125 34.34375 -48.046875 26.28125 -45.234375 C 25.46875 -44.972656 25.101562 -44.613281 25.1875 -44.15625 C 25.21875 -43.988281 25.257812 -43.84375 25.3125 -43.71875 C 25.363281 -43.601562 25.222656 -43.265625 24.890625 -42.703125 L 17.765625 -31.65625 C 17.472656 -31.226562 17.34375 -30.921875 17.375 -30.734375 C 17.40625 -30.546875 17.484375 -30.460938 17.609375 -30.484375 C 17.734375 -30.503906 18.050781 -30.617188 18.5625 -30.828125 C 21.914062 -31.648438 25.023438 -32.320312 27.890625 -32.84375 C 30.753906 -33.363281 32.425781 -33.5 32.90625 -33.25 C 35.507812 -31.957031 37.050781 -31.085938 37.53125 -30.640625 C 38.019531 -30.191406 38.296875 -29.804688 38.359375 -29.484375 C 38.484375 -28.804688 37.984375 -28.289062 36.859375 -27.9375 C 23.335938 -24.082031 16.03125 -22.066406 14.9375 -21.890625 C 13.84375 -21.722656 13.132812 -21.613281 12.8125 -21.5625 C 11.976562 -21.40625 11.160156 -20.582031 10.359375 -19.09375 L 3.109375 -4.671875 C 2.921875 -4.210938 2.84375 -3.890625 2.875 -3.703125 C 2.90625 -3.523438 3.023438 -3.453125 3.234375 -3.484375 C 3.453125 -3.523438 3.75 -3.6875 4.125 -3.96875 C 8.875 -5.65625 13.375 -6.882812 17.625 -7.65625 C 21.882812 -8.425781 25.082031 -8.863281 27.21875 -8.96875 C 30.082031 -9.488281 33.535156 -7.9375 37.578125 -4.3125 C 37.910156 -3.988281 38.101562 -3.671875 38.15625 -3.359375 C 38.21875 -3.046875 37.851562 -2.820312 37.0625 -2.6875 C 24.082031 -0.332031 14.25 1.71875 7.5625 3.46875 C 7.3125 3.570312 6.976562 3.660156 6.5625 3.734375 C 4.332031 4.140625 2.703125 3.898438 1.671875 3.015625 C 1.460938 2.722656 1.175781 2.609375 0.8125 2.671875 C 0.445312 2.742188 0.15625 2.988281 -0.0625 3.40625 C -0.289062 3.820312 -0.484375 4.039062 -0.640625 4.0625 C -0.796875 4.09375 -1.132812 3.992188 -1.65625 3.765625 C -2.175781 3.535156 -2.753906 3.085938 -3.390625 2.421875 C -4.023438 1.765625 -4.421875 1.003906 -4.578125 0.140625 C -4.734375 -0.710938 -4.707031 -1.535156 -4.5 -2.328125 C -4.289062 -3.128906 -4.015625 -4.148438 -3.671875 -5.390625 C -3.335938 -6.628906 -2.472656 -8.816406 -1.078125 -11.953125 C 0.316406 -15.085938 1.878906 -17.835938 3.609375 -20.203125 C 3.816406 -20.503906 3.898438 -20.769531 3.859375 -21 C 3.816406 -21.238281 3.519531 -21.304688 2.96875 -21.203125 C 2.425781 -21.109375 1.847656 -21.207031 1.234375 -21.5 C 0.617188 -21.800781 0.25 -22.300781 0.125 -23 C 0 -23.707031 0.800781 -24.460938 2.53125 -25.265625 L 6.546875 -27.125 C 6.597656 -27.132812 6.625 -27.140625 6.625 -27.140625 C 7.46875 -27.285156 8.207031 -27.984375 8.84375 -29.234375 C 13.8125 -36.222656 16.914062 -40.179688 18.15625 -41.109375 C 18.5625 -41.492188 18.75 -41.78125 18.71875 -41.96875 C 18.6875 -42.15625 18.515625 -42.21875 18.203125 -42.15625 C 17.890625 -42.101562 17.640625 -42.03125 17.453125 -41.9375 C 12.734375 -40.269531 8.9375 -39.175781 6.0625 -38.65625 C 3.195312 -38.132812 1.09375 -37.882812 -0.25 -37.90625 C -1.601562 -37.9375 -2.625 -38.082031 -3.3125 -38.34375 C -4.832031 -38.96875 -5.691406 -39.53125 -5.890625 -40.03125 Z M -6.03125 -40.421875 "/>
      </g>
    </g>
  </g>
  <g fill="#219ebc" fill-opacity="1" transform="matrix(1, 0, 0, 1, -57.219669, -9.698378)">
    <g transform="translate(182.017695, 284.899068)">
      <g>
        <path d="M 5 -7.6875 C 5.625 -7.800781 7.304688 -9.425781 10.046875 -12.5625 C 12.796875 -15.695312 15.390625 -18.804688 17.828125 -21.890625 L 21.4375 -26.5 C 21.613281 -26.757812 21.695312 -26.925781 21.6875 -27 C 21.675781 -27.082031 21.585938 -27.109375 21.421875 -27.078125 C 19.453125 -26.710938 17.078125 -25.109375 14.296875 -22.265625 C 11.523438 -19.421875 9.210938 -16.523438 7.359375 -13.578125 C 5.503906 -10.628906 4.65625 -8.707031 4.8125 -7.8125 C 4.832031 -7.707031 4.894531 -7.664062 5 -7.6875 Z M 18.71875 -8.96875 C 18.75 -8.820312 18.929688 -8.773438 19.265625 -8.828125 C 19.609375 -8.890625 21 -9.945312 23.4375 -12 C 29.789062 -17.300781 37.15625 -24.179688 45.53125 -32.640625 C 46.0625 -32.367188 46.375 -31.972656 46.46875 -31.453125 C 46.570312 -30.929688 46.40625 -30.382812 45.96875 -29.8125 C 45.53125 -29.25 44.910156 -28.4375 44.109375 -27.375 C 43.304688 -26.3125 41.753906 -24.390625 39.453125 -21.609375 C 37.148438 -18.828125 35 -16.285156 33 -13.984375 C 27.75 -7.910156 23.742188 -4.164062 20.984375 -2.75 C 20.097656 -2.3125 19.101562 -1.992188 18 -1.796875 C 16.9375 -1.773438 15.914062 -2 14.9375 -2.46875 C 13.96875 -2.9375 13.40625 -3.585938 13.25 -4.421875 C 13.101562 -5.265625 13.078125 -6.539062 13.171875 -8.25 C 13.265625 -9.957031 13.296875 -10.875 13.265625 -11 C 13.242188 -11.125 13.191406 -11.179688 13.109375 -11.171875 C 13.035156 -11.160156 12.914062 -11.03125 12.75 -10.78125 C 12.195312 -9.9375 11.492188 -8.882812 10.640625 -7.625 C 9.796875 -6.363281 8.269531 -4.601562 6.0625 -2.34375 C 3.863281 -0.09375 1.984375 1.171875 0.421875 1.453125 C 0.148438 1.460938 -0.191406 1.429688 -0.609375 1.359375 C -1.023438 1.296875 -1.613281 0.957031 -2.375 0.34375 C -3.132812 -0.269531 -3.632812 -1.253906 -3.875 -2.609375 C -4.125 -3.972656 -3.484375 -6.234375 -1.953125 -9.390625 C -0.421875 -12.546875 1.5625 -15.726562 4 -18.9375 C 6.4375 -22.144531 9.222656 -25.054688 12.359375 -27.671875 C 15.492188 -30.296875 18.363281 -31.84375 20.96875 -32.3125 C 21.894531 -32.476562 22.796875 -31.910156 23.671875 -30.609375 C 23.566406 -30.972656 24.835938 -33.644531 27.484375 -38.625 C 30.140625 -43.601562 33.425781 -48.71875 37.34375 -53.96875 C 41.269531 -59.226562 44.535156 -62.097656 47.140625 -62.578125 C 48.023438 -62.734375 48.546875 -62.398438 48.703125 -61.578125 C 48.929688 -60.273438 48.375 -58.34375 47.03125 -55.78125 C 45.695312 -53.21875 44.195312 -50.789062 42.53125 -48.5 C 40.875 -46.21875 38.722656 -43.320312 36.078125 -39.8125 C 29.929688 -31.8125 25.421875 -25.128906 22.546875 -19.765625 C 19.671875 -14.398438 18.394531 -10.800781 18.71875 -8.96875 Z M 18.71875 -8.96875 "/>
      </g>
    </g>
  </g>
  <g fill="#219ebc" fill-opacity="1" transform="matrix(1, 0, 0, 1, -57.219669, -9.698378)">
    <g transform="translate(216.979057, 278.562519)">
      <g>
        <path d="M 19.96875 -28 C 18.613281 -27.757812 16.570312 -25.953125 13.84375 -22.578125 C 11.113281 -19.203125 9.804688 -17.203125 9.921875 -16.578125 C 9.941406 -16.472656 10.03125 -16.4375 10.1875 -16.46875 C 11.332031 -16.675781 13.378906 -18.363281 16.328125 -21.53125 C 19.273438 -24.707031 20.664062 -26.769531 20.5 -27.71875 C 20.445312 -27.96875 20.269531 -28.0625 19.96875 -28 Z M 7.828125 0.046875 C 3.816406 0.773438 1.367188 -1.316406 0.484375 -6.234375 C -0.078125 -9.304688 0.671875 -12.816406 2.734375 -16.765625 C 4.796875 -20.722656 7.453125 -24.140625 10.703125 -27.015625 C 13.953125 -29.898438 16.984375 -31.597656 19.796875 -32.109375 C 21.046875 -32.328125 22.289062 -32.035156 23.53125 -31.234375 C 24.78125 -30.429688 25.492188 -29.566406 25.671875 -28.640625 C 25.984375 -26.910156 25.109375 -24.742188 23.046875 -22.140625 C 20.992188 -19.535156 18.742188 -17.320312 16.296875 -15.5 C 13.847656 -13.6875 12.191406 -12.703125 11.328125 -12.546875 C 10.472656 -12.390625 9.765625 -12.671875 9.203125 -13.390625 C 8.972656 -13.503906 8.675781 -13.523438 8.3125 -13.453125 C 7.945312 -13.390625 7.46875 -12.585938 6.875 -11.046875 C 6.289062 -9.515625 6.078125 -8.316406 6.234375 -7.453125 C 6.390625 -6.597656 6.796875 -6.125 7.453125 -6.03125 C 11.421875 -6.75 15.515625 -8.691406 19.734375 -11.859375 C 23.960938 -15.023438 29.640625 -20.269531 36.765625 -27.59375 C 37.265625 -28.101562 38.023438 -28.882812 39.046875 -29.9375 C 40.066406 -30.988281 40.664062 -31.601562 40.84375 -31.78125 C 41.375 -31.519531 41.6875 -31.128906 41.78125 -30.609375 C 41.882812 -30.085938 41.738281 -29.566406 41.34375 -29.046875 C 39.207031 -25.972656 36.359375 -22.441406 32.796875 -18.453125 C 29.242188 -14.472656 25.039062 -10.546875 20.1875 -6.671875 C 15.34375 -2.804688 11.222656 -0.566406 7.828125 0.046875 Z M 7.828125 0.046875 "/>
      </g>
    </g>
  </g>
  <g fill="#219ebc" fill-opacity="1" transform="matrix(1, 0, 0, 1, -57.219669, -9.698378)">
    <g transform="translate(245.448711, 273.402555)">
      <g>
        <path d="M 12.4375 -29 C 12.851562 -29.070312 13.578125 -28.984375 14.609375 -28.734375 C 15.648438 -28.484375 16.21875 -28.101562 16.3125 -27.59375 C 16.382812 -27.226562 16.328125 -26.835938 16.140625 -26.421875 L 11.734375 -17.234375 C 11.210938 -16.273438 10.957031 -15.742188 10.96875 -15.640625 C 10.988281 -15.535156 11.023438 -15.488281 11.078125 -15.5 L 11.4375 -15.796875 C 16.707031 -21.128906 21.015625 -25.738281 24.359375 -29.625 C 24.992188 -30.269531 25.554688 -30.640625 26.046875 -30.734375 C 26.546875 -30.828125 26.882812 -30.832031 27.0625 -30.75 L 29.375 -30.53125 C 29.925781 -30.363281 30.238281 -30.066406 30.3125 -29.640625 C 30.394531 -29.222656 30.359375 -28.867188 30.203125 -28.578125 C 29.410156 -27.296875 28.5 -25.847656 27.46875 -24.234375 C 26.445312 -22.628906 25.6875 -21.414062 25.1875 -20.59375 C 24.6875 -19.78125 24.125 -18.859375 23.5 -17.828125 C 22.875 -16.804688 22.429688 -16.03125 22.171875 -15.5 C 21.921875 -14.96875 21.644531 -14.363281 21.34375 -13.6875 C 21.039062 -13.007812 20.847656 -12.453125 20.765625 -12.015625 C 20.660156 -10.753906 20.691406 -9.675781 20.859375 -8.78125 C 20.941406 -8.320312 21.28125 -8.144531 21.875 -8.25 C 22.476562 -8.363281 23.507812 -8.925781 24.96875 -9.9375 C 26.425781 -10.945312 28.128906 -12.410156 30.078125 -14.328125 C 32.023438 -16.253906 34.582031 -18.941406 37.75 -22.390625 C 40.914062 -25.835938 43.707031 -28.785156 46.125 -31.234375 C 46.664062 -30.941406 46.984375 -30.535156 47.078125 -30.015625 C 47.171875 -29.492188 47.019531 -28.988281 46.625 -28.5 C 45.238281 -26.5625 43.484375 -24.148438 41.359375 -21.265625 C 39.242188 -18.378906 35.9375 -14.425781 31.4375 -9.40625 C 26.945312 -4.394531 23.65625 -1.703125 21.5625 -1.328125 C 17.550781 -0.597656 15.160156 -2.367188 14.390625 -6.640625 C 14.097656 -8.253906 14.414062 -10.066406 15.34375 -12.078125 L 17.875 -17.296875 C 18.09375 -17.816406 18.191406 -18.113281 18.171875 -18.1875 C 18.160156 -18.269531 18.03125 -18.15625 17.78125 -17.84375 C 10.0625 -8.632812 5.070312 -3.148438 2.8125 -1.390625 C 2.445312 -1.066406 1.953125 -0.847656 1.328125 -0.734375 C -0.398438 -0.421875 -1.40625 -1.039062 -1.6875 -2.59375 C -1.78125 -3.113281 -1.734375 -3.613281 -1.546875 -4.09375 C 1.671875 -8.332031 3.851562 -11.710938 5 -14.234375 C 6.03125 -15.710938 7.035156 -17.695312 8.015625 -20.1875 C 8.992188 -22.6875 9.832031 -24.753906 10.53125 -26.390625 C 11.226562 -28.023438 11.863281 -28.894531 12.4375 -29 Z M 12.4375 -29 "/>
      </g>
    </g>
  </g>
  <path fill="#f9a623" d="M 195.016 156.665 L 176.149 142.04 L 185.914 162.357 L 180.735 156.583 L 176.356 155.384 L 148.457 133.271 L 146.668 128.689 L 129.731 112.552 L 116.586 125.103 L 128.738 141.24 L 129.34 145.025 L 143.149 164.15 L 124.602 152.044 L 122.531 152.943 L 108.637 145.771 L 103.703 154.736 L 87.57 143.533 L 84.434 146.665 C 84.434 146.665 97.84 165.927 102.07 170.982 C 96.141 165.697 70.59 144.841 70.09 144.435 L 63.367 151.154 L 73.223 172.181 L 61.125 162.802 L 59.793 162.994 C 59.75 162.951 59.703 162.908 59.668 162.857 L 61.168 162.638 L 72.809 171.662 L 63.172 151.119 L 70.078 144.216 L 70.188 144.302 C 70.426 144.501 93.102 163.013 100.832 169.689 C 95.789 163.24 84.426 146.939 84.305 146.755 L 84.231 146.65 L 87.551 143.326 L 103.653 154.505 L 108.57 145.56 L 122.535 152.771 L 124.613 151.869 L 124.684 151.915 L 142.528 163.556 L 129.188 145.087 L 128.594 141.302 L 116.375 125.087 L 129.731 112.337 L 129.844 112.435 L 146.801 128.603 L 148.594 133.177 L 176.426 155.244 L 180.817 156.443 L 180.852 156.478 L 185.301 161.435 L 175.723 141.505 L 195.11 156.533 C 195.082 156.576 195.051 156.619 195.016 156.665" fill-opacity="1" fill-rule="nonzero"/>
  <g clip-path="url(#ae8e0cc69f)" transform="matrix(1, 0, 0, 1, -57.219669, -9.698378)">
    <path fill="#f9a623" d="M 268.070312 116.40625 L 268.070312 116.652344 C 268.070312 130.910156 264.601562 144.359375 258.441406 156.195312 L 229.554688 131.296875 L 226.765625 128.890625 L 224.496094 131.78125 L 221.796875 135.226562 L 184.0625 103.917969 L 181.46875 101.765625 L 179.210938 104.261719 L 146.359375 140.664062 L 133.144531 132.734375 L 130.929688 131.40625 L 128.996094 133.132812 L 105.035156 154.609375 C 99.390625 143.167969 96.21875 130.277344 96.21875 116.652344 C 96.21875 115.144531 96.257812 113.632812 96.335938 112.144531 L 145.179688 110.070312 L 96.976562 105.203125 C 99.40625 86.929688 107.589844 70.460938 119.640625 57.691406 L 151.035156 54.757812 L 126.078125 51.539062 C 141.128906 38.570312 160.71875 30.730469 182.140625 30.730469 C 212.957031 30.730469 239.976562 46.953125 255.144531 71.3125 L 193.554688 75.816406 L 260.105469 80.488281 C 264.730469 90.433594 267.503906 101.40625 267.988281 112.972656 L 244.078125 114.78125 L 268.070312 116.40625 " fill-opacity="1" fill-rule="nonzero"/>
  </g>
  <path fill="#283618" d="M 234.301 179.658 L 204.723 161.626 L 204.703 161.615 L 200.129 160.419 L 195.11 156.533 L 175.723 141.505 L 185.301 161.435 L 180.852 156.478 L 180.817 156.443 L 176.426 155.244 L 148.594 133.177 L 146.801 128.603 L 129.844 112.435 L 129.731 112.337 L 116.375 125.087 L 128.594 141.302 L 129.188 145.087 L 142.528 163.556 L 124.684 151.915 L 124.613 151.869 L 122.535 152.771 L 108.57 145.56 L 103.653 154.505 L 87.551 143.326 L 84.231 146.65 L 84.305 146.755 C 84.426 146.939 95.789 163.24 100.832 169.689 C 93.102 163.013 70.426 144.501 70.188 144.302 L 70.078 144.216 L 63.172 151.119 L 72.809 171.662 L 61.168 162.638 L 59.668 162.857 L 54.891 163.54 L 49.031 159.478 L 14.195 179.763 L 49.488 148.13 L 74.125 126.048 L 89.809 135.462 L 124.602 96.915 L 165.11 130.533 L 170.039 124.255 L 199.504 149.65 L 234.301 179.658" fill-opacity="1" fill-rule="nonzero"/>
  <g clip-path="url(#d3e1538df6)" transform="matrix(1, 0, 0, 1, -57.219669, -9.698378)">
    <path fill="#283618" d="M 292.25 189.980469 L 261.859375 171.460938 L 257.269531 170.257812 L 252.234375 166.363281 L 233.367188 151.738281 L 243.132812 172.054688 L 237.953125 166.28125 L 233.574219 165.082031 L 205.675781 142.96875 L 203.886719 138.386719 L 186.949219 122.25 L 173.804688 134.800781 L 185.957031 150.9375 L 186.558594 154.722656 L 200.367188 173.847656 L 181.820312 161.742188 L 179.75 162.640625 L 165.855469 155.46875 L 160.921875 164.433594 L 144.789062 153.230469 L 141.652344 156.363281 C 141.652344 156.363281 155.058594 175.625 159.289062 180.679688 C 153.359375 175.394531 127.808594 154.539062 127.308594 154.132812 L 120.585938 160.851562 L 130.441406 181.878906 L 118.34375 172.5 L 117.011719 172.691406 L 112.066406 173.402344 L 106.238281 169.363281 L 70.832031 189.980469 L 71.414062 189.460938 L 106.25 169.175781 L 112.109375 173.238281 L 116.886719 172.554688 L 118.386719 172.335938 L 130.027344 181.359375 L 120.390625 160.816406 L 127.296875 153.914062 L 127.40625 154 C 127.644531 154.199219 150.320312 172.710938 158.050781 179.386719 C 153.007812 172.9375 141.644531 156.636719 141.523438 156.453125 L 141.449219 156.347656 L 144.769531 153.023438 L 160.871094 164.203125 L 165.789062 155.257812 L 179.753906 162.46875 L 181.832031 161.566406 L 181.902344 161.613281 L 199.746094 173.253906 L 186.40625 154.785156 L 185.8125 151 L 173.59375 134.785156 L 186.949219 122.035156 L 187.0625 122.132812 L 204.019531 138.300781 L 205.8125 142.875 L 233.644531 164.941406 L 238.035156 166.140625 L 238.070312 166.175781 L 242.519531 171.132812 L 232.941406 151.203125 L 252.328125 166.230469 L 257.347656 170.117188 L 261.921875 171.3125 L 261.941406 171.324219 L 291.519531 189.355469 L 292.25 189.980469 " fill-opacity="1" fill-rule="nonzero"/>
  </g>
  <path fill="#023047" d="M 70.082 144.427 L 63.367 151.154 L 70.09 144.435 C 70.082 144.427 70.082 144.427 70.082 144.427" fill-opacity="1" fill-rule="nonzero"/>
  <g clip-path="url(#3f0170c83f)" transform="matrix(1, 0, 0, 1, -57.219669, -9.698378)">
    <path fill="#606c38" d="M 293.53125 190.578125 L 275.628906 184.539062 L 269.023438 184.070312 L 268.988281 184.042969 L 246.132812 167.1875 L 250.765625 181.09375 L 241.621094 178.578125 L 251.320312 189.011719 L 229.488281 176.742188 L 228.308594 172.726562 L 215.054688 160.871094 L 207.917969 167.324219 L 207.230469 170.527344 L 211.300781 188.488281 L 178.855469 167.40625 L 173.113281 168.785156 L 167.433594 179.671875 L 159.617188 175.007812 L 167.792969 188.292969 L 140.148438 174.734375 L 136.054688 178.351562 L 136.054688 186.957031 L 118.980469 181.03125 L 109.5625 184.308594 L 101.109375 178.457031 L 70.886719 190.125 L 70.753906 189.847656 L 71.414062 189.460938 L 106.25 169.175781 L 112.109375 173.238281 L 116.886719 172.554688 L 118.386719 172.335938 L 130.027344 181.359375 L 120.390625 160.816406 L 127.296875 153.914062 L 127.40625 154 C 127.644531 154.199219 150.320312 172.710938 158.050781 179.386719 C 153.007812 172.9375 141.644531 156.636719 141.523438 156.453125 L 141.449219 156.347656 L 144.769531 153.023438 L 160.871094 164.203125 L 165.789062 155.257812 L 179.753906 162.46875 L 181.832031 161.566406 L 181.902344 161.613281 L 199.746094 173.253906 L 186.40625 154.785156 L 185.8125 151 L 173.59375 134.785156 L 186.949219 122.035156 L 187.0625 122.132812 L 204.019531 138.300781 L 205.8125 142.875 L 233.644531 164.941406 L 238.035156 166.140625 L 238.070312 166.175781 L 242.519531 171.132812 L 232.941406 151.203125 L 252.328125 166.230469 L 257.347656 170.117188 L 261.921875 171.3125 L 261.941406 171.324219 L 291.519531 189.355469 L 293.53125 190.578125 " fill-opacity="1" fill-rule="nonzero"/>
  </g>
</svg>