<?xml version="1.0" encoding="utf-8" ?>
<svg baseProfile="tiny" height="505" version="1.2" width="933" xmlns="http://www.w3.org/2000/svg" xmlns:ev="http://www.w3.org/2001/xml-events" xmlns:xlink="http://www.w3.org/1999/xlink"><defs /><polygon fill="black" points="422,263" /><polygon fill="black" points="541,211" /><polygon fill="black" points="284,182" /><polygon fill="black" points="503,171" /><polygon fill="black" points="371,125" /><polygon fill="black" points="435,64 434,65 434,77 433,78 433,83 432,84 432,85 430,87 429,87 428,88 427,88 426,89 425,89 424,90 421,90 420,91 419,91 418,92 415,92 414,93 411,93 410,94 407,94 406,95 401,95 400,96 350,96 349,97 345,97 344,98 339,98 338,99 336,99 335,100 332,100 331,101 329,101 328,102 326,102 325,103 323,103 322,104 321,104 320,105 319,105 318,106 317,106 316,107 315,107 314,108 313,108 312,109 311,109 310,110 309,110 308,111 307,111 306,112 305,112 304,113 303,113 302,114 300,114 299,115 296,115 295,116 292,116 291,117 284,117 283,118 270,118 269,119 262,119 261,118 252,118 251,117 247,117 246,116 244,116 243,115 242,115 241,114 239,114 238,113 236,113 235,112 230,112 229,111 224,111 223,112 216,112 215,113 212,113 211,114 209,114 208,115 205,115 204,116 203,116 202,117 200,117 199,118 198,118 197,119 196,119 195,120 193,120 192,121 191,121 190,122 189,122 188,123 187,123 186,124 185,123 184,123 183,122 181,122 180,121 177,121 176,120 169,120 168,121 167,121 166,122 165,122 163,124 163,125 164,124 165,124 166,123 167,123 168,122 179,122 180,123 182,123 183,124 183,125 182,126 180,126 179,127 178,127 177,128 174,128 173,129 171,129 170,130 166,130 165,131 158,131 157,132 136,132 135,131 131,131 130,130 128,130 127,129 126,129 125,128 123,128 122,127 121,127 120,126 119,126 118,125 117,125 116,124 114,124 113,123 110,123 109,122 97,122 96,123 93,123 92,124 91,124 90,125 88,125 86,127 87,126 90,126 91,125 96,125 97,124 108,124 109,125 113,125 114,126 116,126 117,127 119,127 121,129 122,129 123,130 125,130 126,131 127,131 128,132 131,132 132,133 136,133 137,134 144,134 145,135 150,135 151,134 162,134 163,133 169,133 170,132 174,132 175,131 177,131 178,130 180,130 181,131 180,132 180,133 179,134 179,135 178,136 178,137 177,138 177,140 176,141 176,142 175,143 175,144 173,146 173,147 167,153 168,152 169,152 170,151 171,151 174,148 174,147 175,146 175,145 176,144 176,143 177,142 177,141 178,140 178,139 179,138 179,137 180,136 180,135 188,127 189,127 190,126 191,126 192,125 193,125 194,124 195,124 196,123 197,123 198,122 200,122 201,121 203,121 204,120 205,120 206,119 209,119 210,118 212,118 213,117 217,117 218,116 235,116 236,117 237,117 238,118 240,118 241,119 243,119 244,120 246,120 247,121 251,121 252,122 258,122 259,123 278,123 279,124 279,127 278,128 278,129 275,132 274,132 273,133 270,133 269,132 265,132 264,131 261,131 260,132 257,132 256,133 254,133 253,134 252,134 251,135 250,135 244,141 243,141 242,142 238,142 237,143 236,143 235,144 234,144 233,145 232,145 228,149 229,149 233,145 234,145 235,144 236,144 237,143 241,143 242,142 243,142 244,141 245,141 247,139 248,139 253,134 254,134 255,133 257,133 258,132 263,132 264,133 269,133 270,134 276,134 277,133 278,133 279,132 279,131 280,130 280,129 281,128 281,127 286,122 290,122 291,121 297,121 298,120 300,120 301,119 303,119 304,118 306,118 307,117 308,117 309,116 310,116 312,114 313,114 314,113 315,113 316,112 317,112 318,113 317,114 317,115 314,118 314,119 312,121 312,122 311,123 311,124 310,125 311,124 311,123 313,121 313,120 317,116 317,115 319,113 319,112 321,110 322,110 323,109 324,109 325,108 328,108 329,107 331,107 332,106 334,106 335,105 339,105 340,104 345,104 346,103 359,103 360,102 364,102 365,103 379,103 380,104 381,104 382,105 381,106 379,106 378,107 377,107 376,108 374,108 373,109 371,109 370,110 369,110 368,111 367,111 365,113 364,113 362,115 361,115 358,118 358,119 354,123 354,124 353,125 352,125 349,128 348,128 347,129 346,129 345,130 343,130 342,131 338,131 337,132 336,132 338,132 339,131 342,131 343,130 346,130 347,129 349,129 351,127 352,127 359,120 359,119 362,116 363,116 366,113 367,113 368,112 369,112 370,111 372,111 373,110 374,110 375,109 377,109 378,108 380,108 381,107 382,107 383,106 385,106 386,105 387,105 388,104 389,104 390,103 400,103 401,102 407,102 408,101 411,101 412,100 415,100 416,99 419,99 420,98 422,98 423,97 426,97 427,98 418,107 418,108 415,111 414,111 410,115 409,115 407,117 405,117 404,118 403,118 402,119 400,119 399,120 382,120 381,121 378,121 377,122 376,122 375,123 374,123 373,124 374,123 376,123 377,122 383,122 384,121 389,121 390,122 398,122 399,121 402,121 403,120 404,120 405,119 407,119 408,118 409,118 410,119 409,120 409,121 408,122 408,123 407,124 407,125 406,126 406,127 405,128 405,129 404,130 404,131 402,133 402,134 401,135 401,136 400,137 400,138 395,143 394,143 393,144 383,144 382,143 379,143 378,142 374,142 373,141 365,141 364,140 363,141 356,141 355,142 352,142 351,143 350,143 349,144 348,144 347,145 346,145 345,146 344,146 343,147 341,147 340,148 331,148 330,147 318,147 324,147 325,148 330,148 331,149 336,149 337,150 337,151 330,158 329,158 327,160 326,160 325,161 318,161 317,162 314,162 313,163 311,163 310,164 308,164 307,165 306,165 305,166 304,166 302,168 301,168 297,172 296,172 289,179 288,179 286,181 287,181 288,180 289,180 290,179 291,179 294,176 295,176 298,173 299,173 301,171 302,171 304,169 305,169 307,167 308,167 309,166 311,166 312,165 319,165 320,166 319,167 319,168 318,169 318,170 317,171 317,173 316,174 316,175 315,176 315,177 314,178 314,179 313,180 313,181 306,188 307,187 308,187 310,185 311,185 313,183 313,182 315,180 315,179 316,178 316,177 317,176 317,174 318,173 318,172 319,171 319,170 322,167 322,166 323,165 324,165 327,162 328,162 329,163 329,170 330,171 330,170 329,169 329,164 330,163 330,162 334,158 335,158 341,152 342,152 345,149 346,149 348,147 349,147 350,146 351,146 352,145 354,145 355,144 358,144 359,143 369,143 370,144 373,144 374,145 376,145 377,146 380,146 381,147 384,147 385,148 386,148 387,149 384,152 384,153 383,154 383,155 382,156 382,157 381,158 381,159 380,160 380,162 379,163 379,164 378,165 378,166 376,168 375,168 371,172 371,173 369,175 369,177 368,178 368,179 367,180 367,182 366,183 366,185 365,186 366,185 366,184 367,183 367,182 368,181 368,179 369,178 369,177 371,175 371,174 375,170 376,170 379,167 379,166 380,165 380,164 381,163 381,161 382,160 382,159 383,158 383,157 384,156 384,154 386,152 386,151 387,150 388,150 389,149 390,149 391,148 396,148 397,147 399,147 400,146 401,146 406,141 406,140 408,138 408,137 409,136 409,135 410,134 410,133 411,132 411,131 413,129 413,128 414,127 414,126 416,124 416,123 418,121 418,120 431,107 432,107 435,104 436,104 438,102 439,102 441,100 442,100 443,99 444,100 444,101 442,103 442,104 441,105 441,106 440,107 440,108 439,109 439,111 438,112 438,113 437,114 437,116 436,117 436,119 435,120 435,121 434,122 434,125 433,126 433,128 432,129 432,131 431,132 431,133 429,135 428,135 427,136 425,136 424,137 423,137 422,138 421,138 415,144 415,145 413,147 413,148 411,150 411,151 409,153 409,154 413,150 413,149 419,143 419,142 421,140 422,140 424,138 426,138 427,137 429,137 430,138 430,140 429,141 429,144 428,145 428,148 427,149 427,151 426,152 426,154 424,156 424,157 417,164 416,164 412,168 411,168 403,176 402,176 393,185 392,185 390,187 389,187 388,188 386,188 385,189 383,189 382,190 374,190 373,191 371,191 370,192 369,192 368,193 367,193 366,194 367,193 368,193 369,192 373,192 374,191 379,191 380,190 386,190 387,189 389,189 390,188 391,188 392,187 393,188 393,190 392,191 392,192 391,193 391,195 390,196 390,198 389,199 389,200 388,201 388,202 386,204 386,205 382,209 381,209 379,211 378,211 376,213 375,213 373,215 372,215 370,217 369,217 367,219 366,219 365,220 364,220 366,220 367,219 368,219 369,218 370,218 371,217 372,217 373,216 374,216 376,214 377,214 380,211 381,211 388,204 388,203 390,201 390,200 392,198 392,196 393,195 393,194 394,193 394,192 395,191 395,190 396,189 396,188 397,187 397,186 399,184 399,183 410,172 411,172 414,169 415,169 416,168 417,168 418,169 417,170 417,172 416,173 416,175 415,176 415,188 416,189 416,191 417,192 417,205 416,206 416,207 416,206 417,205 417,203 418,202 418,192 417,191 417,187 416,186 416,178 417,177 417,174 418,173 418,171 419,170 419,169 420,168 420,167 422,165 422,164 425,161 425,160 427,158 427,157 428,156 428,155 429,154 429,153 430,152 430,151 431,150 431,148 432,147 432,146 433,145 433,142 434,141 434,139 435,138 435,135 436,134 436,132 437,131 437,129 438,128 438,126 439,125 440,126 440,128 441,129 441,131 442,132 442,134 443,135 443,136 444,137 444,139 445,140 445,142 445,138 444,137 444,135 443,134 443,132 442,131 442,125 441,124 442,123 442,117 443,116 443,114 444,113 444,112 445,111 445,110 446,109 446,108 448,106 448,105 452,101 453,102 453,103 454,104 454,108 455,109 455,115 456,116 456,123 457,124 457,130 456,131 456,138 455,139 455,142 454,143 454,144 453,145 453,146 452,147 452,148 450,150 450,151 435,166 435,167 434,168 434,169 433,170 433,172 432,173 432,176 432,175 433,174 433,173 434,172 434,171 435,170 435,169 447,157 448,157 451,154 451,153 453,151 453,150 455,148 455,147 456,146 457,147 457,156 456,157 456,163 455,164 455,168 454,169 454,171 453,172 453,175 452,176 452,178 451,179 451,180 450,181 450,182 449,183 449,184 448,185 448,187 447,188 447,189 446,190 446,191 445,192 445,194 444,195 444,198 443,199 443,203 442,204 442,210 441,211 441,212 439,214 439,215 437,217 437,218 436,219 436,220 434,222 434,223 432,225 432,226 431,227 431,228 427,232 426,232 424,234 423,234 421,236 421,237 419,239 419,240 418,241 418,242 417,243 417,245 416,246 416,247 415,248 416,247 416,246 418,244 418,243 419,242 419,241 422,238 422,237 424,235 425,235 427,233 428,234 428,243 427,244 427,252 426,253 426,256 425,257 425,258 424,259 424,260 423,261 425,259 425,258 426,257 426,256 427,255 427,254 429,252 430,253 430,262 429,263 429,265 429,264 430,263 430,257 431,256 431,255 430,254 430,250 429,249 429,247 428,246 428,241 429,240 429,237 430,236 430,234 431,233 431,231 432,230 432,229 433,228 433,227 435,225 435,224 437,222 437,221 439,219 439,218 441,216 443,218 443,222 444,223 444,226 445,227 445,230 446,231 446,232 447,233 447,235 448,236 448,238 449,239 449,240 450,241 450,242 451,243 451,244 452,245 452,247 453,248 453,249 454,250 454,251 455,252 455,253 456,254 456,256 457,257 457,258 458,259 458,260 459,261 459,266 458,267 458,268 453,273 453,274 449,278 449,279 442,286 443,285 444,285 446,283 447,283 448,282 449,283 449,284 448,285 448,293 447,294 447,298 447,296 448,295 448,293 449,292 449,288 450,287 450,284 451,283 451,281 452,280 452,279 453,278 453,277 454,276 454,275 461,268 462,269 462,270 463,271 463,272 464,273 464,275 465,276 465,278 466,279 466,284 467,285 467,295 466,296 466,301 465,302 465,304 464,305 464,308 463,309 463,311 462,312 462,313 461,314 461,316 460,317 460,319 459,320 459,321 458,322 458,324 457,325 457,326 456,327 456,328 455,329 455,330 453,332 453,333 449,337 448,337 446,339 445,339 444,340 443,340 441,342 440,342 435,347 435,348 434,349 434,350 433,351 433,352 433,351 441,343 442,343 444,341 445,341 447,339 448,339 449,338 450,338 452,336 453,337 453,341 452,342 452,359 453,360 453,385 452,386 452,389 451,390 451,393 450,394 451,393 451,392 452,391 452,389 453,388 453,386 454,385 454,382 455,381 455,366 456,365 461,370 461,371 462,372 462,374 463,375 463,380 464,381 464,382 465,383 465,384 465,383 464,382 464,379 463,378 463,373 462,372 462,370 460,368 460,367 459,367 458,366 458,365 456,363 456,362 455,361 455,360 454,359 454,345 455,344 455,340 456,339 456,336 457,335 457,333 458,332 458,331 459,330 459,328 460,327 460,325 461,324 461,323 462,322 462,320 463,319 463,318 464,317 464,315 465,314 465,312 466,311 466,310 467,309 467,307 468,306 468,303 469,302 469,299 470,298 470,284 471,283 474,283 475,284 476,284 477,285 479,285 484,290 484,294 483,295 483,307 484,308 484,310 485,311 485,313 487,315 487,316 489,318 489,319 497,327 497,328 498,329 498,332 499,333 499,335 500,336 500,337 508,345 508,344 503,339 503,338 501,336 501,335 500,334 500,333 499,332 499,329 498,328 498,326 496,324 496,323 487,314 487,313 486,312 486,311 485,310 485,308 484,307 484,302 485,301 485,297 486,296 488,298 488,299 489,300 489,301 490,302 490,303 494,307 495,307 498,310 499,310 502,313 503,313 504,314 499,309 498,309 492,303 492,302 490,300 490,299 489,298 489,297 488,296 488,295 487,294 487,292 486,291 486,289 485,288 485,287 484,286 484,285 482,283 481,283 480,282 479,282 478,281 476,281 475,280 474,280 472,278 471,278 470,277 470,276 468,274 468,273 466,271 466,269 465,268 465,266 464,265 464,264 463,263 463,261 462,260 462,258 461,257 461,256 460,255 460,254 459,253 459,251 458,250 458,249 457,248 457,247 456,246 456,244 455,243 455,242 454,241 454,239 453,238 453,236 452,235 452,233 451,232 451,230 450,229 450,226 449,225 449,220 448,219 448,204 449,203 449,199 450,198 450,196 452,194 453,194 454,195 456,195 457,196 458,196 459,197 461,197 462,198 463,198 464,199 465,199 466,200 467,200 468,201 469,201 470,202 471,202 478,209 478,210 479,211 479,212 480,213 480,214 481,215 481,217 482,218 482,221 483,222 483,225 484,226 484,233 483,234 483,235 482,236 482,239 481,240 481,244 482,245 482,251 483,252 483,256 483,248 482,247 482,240 483,239 483,237 485,235 486,236 486,237 487,238 487,240 488,241 488,243 489,244 489,245 490,246 490,247 494,251 494,252 495,252 497,254 496,255 496,256 495,257 495,258 494,259 494,265 495,266 495,264 494,263 494,261 495,260 495,258 496,257 496,256 497,255 498,255 504,261 504,262 507,265 507,266 508,267 508,268 509,269 509,270 510,271 510,273 511,274 511,275 511,271 510,270 510,267 509,266 509,265 508,264 508,263 506,261 506,260 505,259 504,259 497,252 497,251 494,248 494,247 492,245 492,243 490,241 490,239 489,238 489,236 488,235 488,233 487,232 487,228 486,227 486,223 485,222 485,218 486,217 487,218 488,218 489,219 491,219 492,220 493,220 494,221 495,221 496,222 497,222 498,223 499,223 501,225 502,225 509,232 508,231 508,230 500,222 499,222 498,221 496,221 495,220 493,220 491,218 490,218 488,216 487,216 483,212 483,211 481,209 481,208 480,207 480,206 473,199 472,199 471,198 470,198 469,197 467,197 466,196 465,196 464,195 463,195 462,194 461,194 460,193 458,193 457,192 456,192 455,191 454,191 453,190 453,188 454,187 454,186 455,185 455,184 456,183 456,182 457,181 457,179 458,178 458,176 459,175 459,174 460,173 460,170 461,169 461,166 462,165 462,161 463,160 463,155 464,154 464,145 465,144 465,130 464,129 464,128 465,127 466,127 467,128 467,130 468,131 468,133 469,134 469,138 470,139 470,142 471,143 471,145 471,143 470,142 470,133 469,132 469,129 468,128 468,126 466,124 466,123 464,121 464,120 463,119 463,111 462,110 462,103 463,102 464,103 464,104 466,106 466,107 468,109 468,110 469,111 469,112 471,114 471,115 472,116 472,118 473,119 473,120 474,121 474,123 475,124 475,126 476,127 476,130 477,131 477,137 478,138 478,159 479,160 479,162 480,163 480,165 482,167 482,168 485,171 485,172 489,176 489,177 491,179 491,180 492,181 492,182 493,183 493,184 494,185 494,191 495,192 495,193 496,194 496,195 500,199 500,200 507,207 506,206 506,205 505,204 505,203 501,199 501,198 498,195 498,194 497,193 497,192 496,191 496,189 495,188 495,183 494,182 494,180 493,179 493,178 491,176 491,175 486,170 486,169 483,166 483,165 481,163 481,162 480,161 480,159 479,158 479,153 481,151 485,155 486,155 487,156 488,156 489,157 493,157 495,159 495,160 496,161 496,162 501,167 501,168 502,169 501,168 501,167 500,166 500,165 496,161 496,159 497,158 502,158 503,159 509,159 510,160 513,160 514,161 515,161 517,163 518,163 526,171 526,172 528,174 528,175 529,176 529,177 530,178 530,179 531,180 531,181 532,182 532,194 533,195 533,197 534,198 534,199 535,200 535,201 536,202 536,203 538,205 538,206 540,208 540,209 540,208 539,207 539,205 538,204 538,203 537,202 537,201 536,200 536,199 535,198 535,197 534,196 534,194 533,193 533,187 534,186 535,187 537,187 538,188 535,185 535,184 534,183 534,182 533,181 533,179 532,178 532,177 531,176 531,175 530,174 530,173 529,172 529,171 528,170 528,169 529,168 539,178 540,178 541,179 543,179 544,180 546,180 547,181 551,181 552,182 556,182 553,182 552,181 549,181 548,180 545,180 544,179 543,179 541,177 540,177 533,170 533,169 532,169 528,165 527,165 525,163 524,163 523,162 522,162 521,161 520,161 519,160 517,160 516,159 515,159 514,158 511,158 510,157 507,157 506,156 501,156 500,155 495,155 494,154 493,154 492,153 490,153 485,148 485,147 484,146 484,140 483,139 483,131 482,130 482,125 481,124 481,120 480,119 480,117 481,116 483,116 484,117 486,117 487,118 488,118 489,119 491,119 492,120 493,120 494,121 495,121 496,122 497,122 498,123 499,123 501,125 502,125 507,130 507,131 509,133 509,134 511,136 511,137 515,141 516,141 518,143 519,143 520,144 521,144 522,145 523,145 524,146 527,146 528,147 531,147 529,147 528,146 527,146 526,145 525,145 524,144 523,144 521,142 520,142 510,132 510,131 508,129 508,128 501,121 500,121 498,119 497,119 496,118 495,118 494,117 492,117 491,116 490,116 489,115 486,115 485,114 484,114 483,113 482,113 481,112 480,112 476,108 476,107 475,106 475,105 474,104 474,103 473,102 473,101 472,100 472,99 471,98 471,97 472,96 473,96 474,97 475,97 476,98 477,98 478,99 479,99 480,100 481,100 482,101 483,101 484,102 485,102 486,103 488,103 489,104 490,104 491,105 493,105 494,106 496,106 497,107 499,107 500,108 503,108 504,109 507,109 508,110 511,110 512,111 516,111 517,112 520,112 521,113 523,113 527,117 527,119 528,120 528,122 529,123 529,124 531,126 531,127 536,132 537,132 539,134 540,134 542,136 543,136 545,138 546,138 544,136 543,136 531,124 531,123 530,122 530,121 529,120 529,119 528,118 528,115 529,114 530,114 531,115 534,115 535,116 538,116 539,117 540,117 541,118 542,118 543,119 544,119 545,120 546,120 547,121 548,121 556,129 556,130 559,133 559,134 567,142 567,143 573,149 573,150 576,153 576,154 577,155 577,156 578,157 578,159 579,160 579,163 580,164 580,174 581,175 581,177 582,178 582,179 583,180 583,181 584,182 583,181 583,180 582,179 582,175 581,174 581,161 580,160 580,157 579,156 579,155 580,154 581,154 582,155 583,155 584,156 585,156 586,157 588,157 589,158 591,158 592,159 593,159 594,160 597,160 598,161 599,161 600,162 601,162 602,163 603,163 604,164 604,174 605,175 606,175 605,174 605,173 604,172 604,166 605,165 607,165 615,173 615,174 617,176 617,177 619,179 619,180 621,182 621,183 623,185 623,186 626,189 626,190 627,191 626,190 626,189 625,188 625,187 624,186 624,185 623,184 623,183 622,182 622,181 620,179 620,178 619,177 619,176 616,173 616,172 612,168 612,167 606,161 608,159 612,159 613,160 617,160 618,161 619,161 620,162 621,162 620,161 618,161 617,160 616,160 615,159 612,159 611,158 608,158 607,159 600,159 599,158 597,158 596,157 594,157 593,156 592,156 591,155 589,155 588,154 587,154 586,153 585,153 584,152 583,152 581,150 580,150 578,148 577,148 568,139 568,138 562,132 562,131 558,127 558,126 557,125 557,124 558,123 564,123 565,124 570,124 571,125 573,125 574,126 575,126 576,127 577,127 579,129 580,129 585,134 584,133 584,132 582,130 581,130 578,127 577,127 576,126 575,126 574,125 572,125 571,124 570,124 569,123 563,123 562,122 558,122 557,121 555,121 554,120 553,120 552,119 551,119 548,116 547,116 545,114 544,114 543,113 542,113 541,112 539,112 538,111 536,111 535,110 532,110 531,109 528,109 527,108 524,108 523,107 519,107 518,106 515,106 514,105 512,105 511,104 508,104 507,103 508,102 535,102 536,101 552,101 553,102 559,102 560,103 563,103 564,104 565,104 566,105 568,105 570,107 571,107 574,110 575,110 578,113 578,114 581,117 581,118 582,119 582,120 583,121 583,122 585,124 585,125 588,128 588,129 591,132 592,132 594,134 595,134 596,135 597,135 593,131 592,131 590,129 590,128 587,125 587,124 585,122 585,121 584,120 584,119 583,118 583,117 582,116 582,115 581,114 581,113 575,107 576,106 578,106 579,107 581,107 582,108 584,108 585,109 586,109 587,110 588,110 589,111 590,111 592,113 593,113 594,114 596,114 597,115 598,115 599,116 601,116 602,117 603,117 604,118 606,118 607,119 611,119 612,120 615,120 616,121 624,121 625,122 628,122 629,123 630,123 631,124 632,124 633,125 634,125 636,127 638,127 639,128 640,128 641,129 643,129 644,130 647,130 648,131 651,131 652,132 662,132 663,131 666,131 667,132 670,132 671,133 672,133 673,134 674,134 676,136 677,136 679,138 680,138 681,139 678,136 677,136 675,134 674,134 673,133 672,133 671,132 670,132 669,131 667,131 666,130 649,130 648,129 646,129 645,128 643,128 642,127 641,127 640,126 639,126 638,125 637,125 635,123 636,122 644,122 645,121 653,121 654,120 658,120 659,119 662,119 663,118 664,118 665,117 667,117 668,116 670,116 671,115 674,115 675,114 683,114 684,115 688,115 689,116 694,116 695,117 697,117 698,118 700,118 701,119 703,119 704,120 705,120 706,121 707,121 712,126 712,127 714,129 714,130 716,132 717,132 718,133 719,133 720,134 721,134 722,135 725,135 726,136 732,136 733,137 735,137 736,138 738,138 739,139 740,139 742,141 743,141 744,142 744,143 745,143 746,144 747,144 748,145 750,145 751,146 759,146 760,147 763,147 762,147 761,146 757,146 756,145 753,145 752,144 749,144 748,143 747,143 745,141 744,141 740,137 739,137 738,136 735,136 734,135 730,135 729,134 724,134 723,133 721,133 720,132 719,132 714,127 714,126 713,125 714,124 715,124 716,125 717,125 718,126 719,126 720,127 722,127 723,128 725,128 726,129 728,129 729,130 733,130 734,131 738,131 739,132 745,132 746,133 768,133 769,132 774,132 775,131 777,131 778,130 780,130 781,129 782,129 783,128 784,128 785,127 787,127 788,126 789,126 790,125 792,125 793,124 797,124 798,123 811,123 812,124 817,124 818,125 820,125 819,125 818,124 817,124 816,123 815,123 814,122 811,122 810,121 797,121 796,122 793,122 792,123 790,123 789,124 788,124 787,125 786,125 785,126 784,126 783,127 781,127 780,128 778,128 777,129 775,129 774,130 770,130 769,131 764,131 763,130 766,127 767,127 768,126 771,126 766,126 761,131 751,131 750,130 743,130 742,129 738,129 737,128 733,128 732,127 731,127 730,126 728,126 727,125 725,125 724,124 723,124 722,123 720,123 719,122 718,122 717,121 716,121 715,120 714,120 713,119 712,119 711,118 710,118 709,117 707,117 706,116 705,116 704,115 703,115 702,114 699,114 698,113 697,113 696,112 692,112 691,111 686,111 685,110 673,110 672,111 670,111 669,112 668,112 667,113 665,113 664,114 662,114 661,115 658,115 657,116 654,116 653,117 625,117 624,116 624,115 625,114 629,114 630,113 634,113 635,112 637,112 638,111 640,111 641,110 643,110 644,109 645,109 646,108 648,108 649,107 651,107 648,107 647,108 644,108 643,109 638,109 637,110 634,110 633,111 629,111 628,112 624,112 623,113 621,113 620,114 617,114 616,115 613,115 612,114 609,114 608,113 606,113 605,112 603,112 602,111 601,111 600,110 598,110 597,109 596,109 595,108 594,108 593,107 592,107 591,106 590,106 588,104 586,104 585,103 584,103 583,102 582,102 581,101 579,101 578,100 577,100 576,99 574,99 573,98 569,98 568,97 565,97 564,96 559,96 558,95 547,95 546,94 537,94 536,95 508,95 507,94 502,94 501,93 497,93 496,92 493,92 492,91 490,91 489,90 486,90 485,89 483,89 482,88 480,88 479,87 478,87 474,83 474,81 473,80 473,75 472,74 472,69 471,68 471,64" /></svg>